<svg width="296" height="185" viewBox="0 0 296 185" fill="none" xmlns="http://www.w3.org/2000/svg">
<path d="M296 12.9538V172.046C296 179.199 290.197 185 283.044 185H12.9499C9.73055 185 6.77658 183.818 4.51144 181.874C1.75034 179.499 0 175.974 0 172.048V12.9538C0 5.80091 5.79773 0 12.9499 0H283.044C290.195 0 296 5.80091 296 12.9538Z" fill="#FF4800"/>
<path d="M295.997 32.7122H0V67.9732H295.997V32.7122Z" fill="#180201"/>
<path d="M268.464 161.096H211.144C207.746 161.096 204.992 158.341 204.992 154.942V142.851C204.992 139.453 207.746 136.698 211.144 136.698H268.464C271.862 136.698 274.616 139.453 274.616 142.851V154.942C274.616 158.341 271.862 161.096 268.464 161.096Z" fill="#FEB497"/>
<path d="M38.2452 109.8H18.7333C17.8763 109.8 17.1816 109.105 17.1816 108.248V98.0444C17.1816 97.1871 17.8763 96.4923 18.7333 96.4923H38.2452C39.1022 96.4923 39.7968 97.1871 39.7968 98.0444V108.248C39.7983 109.105 39.1022 109.8 38.2452 109.8Z" fill="#FEB497"/>
<path d="M78.085 109.8H58.5732C57.7161 109.8 57.0215 109.105 57.0215 108.248V98.0444C57.0215 97.1871 57.7161 96.4923 58.5732 96.4923H78.085C78.942 96.4923 79.6367 97.1871 79.6367 98.0444V108.248C79.6367 109.105 78.942 109.8 78.085 109.8Z" fill="#FEB497"/>
<path d="M117.923 109.8H98.411C97.554 109.8 96.8594 109.105 96.8594 108.248V98.0444C96.8594 97.1871 97.554 96.4923 98.411 96.4923H117.923C118.78 96.4923 119.475 97.1871 119.475 98.0444V108.248C119.475 109.105 118.78 109.8 117.923 109.8Z" fill="#FEB497"/>
<path d="M157.761 109.8H138.249C137.392 109.8 136.697 109.105 136.697 108.248V98.0444C136.697 97.1871 137.392 96.4923 138.249 96.4923H157.761C158.618 96.4923 159.312 97.1871 159.312 98.0444V108.248C159.312 109.105 158.618 109.8 157.761 109.8Z" fill="#FEB497"/>
<path d="M197.595 109.8H178.083C177.226 109.8 176.531 109.105 176.531 108.248V98.0444C176.531 97.1871 177.226 96.4923 178.083 96.4923H197.595C198.452 96.4923 199.146 97.1871 199.146 98.0444V108.248C199.148 109.105 198.452 109.8 197.595 109.8Z" fill="#FEB497"/>
<path d="M237.435 109.8H217.923C217.066 109.8 216.371 109.105 216.371 108.248V98.0444C216.371 97.1871 217.066 96.4923 217.923 96.4923H237.435C238.292 96.4923 238.986 97.1871 238.986 98.0444V108.248C238.986 109.105 238.292 109.8 237.435 109.8Z" fill="#FEB497"/>
<path d="M277.272 109.8H257.761C256.904 109.8 256.209 109.105 256.209 108.248V98.0444C256.209 97.1871 256.904 96.4923 257.761 96.4923H277.272C278.13 96.4923 278.824 97.1871 278.824 98.0444V108.248C278.824 109.105 278.13 109.8 277.272 109.8Z" fill="#FEB497"/>
<path d="M295.997 14.0286H0V20.7883H295.997V14.0286Z" fill="#FEB497"/>
<path d="M33.8244 163.639C33.4212 163.511 33.0232 163.356 32.6402 163.176C30.629 162.234 29.0871 160.48 28.2976 158.24C27.2134 155.161 27.5822 151.38 29.3045 147.872C30.7176 144.982 32.4198 142.821 34.5085 141.265L34.8946 140.976C35.5839 140.455 36.0589 140.111 37.0772 139.628C37.8667 139.253 38.6793 138.93 39.4632 138.618C41.3085 137.885 43.0532 137.193 43.8342 136.082C44.5408 135.075 45.0102 133.727 45.5079 132.299L48.3113 124.253L51.4979 132.105C52.3249 134.142 53.429 136.861 53.1889 139.808L53.223 139.897L53.0628 140.793C52.754 142.461 52.0531 143.846 51.2036 145.036L51.7527 145.059L51.3263 148.496C51.3237 148.596 51.3609 148.974 51.3894 149.248C51.4752 150.104 51.584 151.169 51.3666 152.336C50.537 156.694 46.366 161.333 41.6659 163.139C38.845 164.223 36.2073 164.389 33.8301 163.636L33.8244 163.639Z" fill="white"/>
<path d="M49.9226 140.214C49.2961 143.608 46.201 145.522 44.1298 148.003C43.7693 148.438 43.4889 149.065 43.3431 149.609C43.1113 150.481 43.4633 150.997 44.1954 151.014C45.4799 151.034 46.5669 150.224 47.5054 148.945C47.7028 148.673 47.8687 148.381 48.0432 148.095C48.0832 148.101 48.1233 148.103 48.1577 148.106C48.0375 149.068 48.4608 150.484 48.2262 151.755C47.5684 155.2 44.0324 158.809 40.5193 160.159C38.131 161.077 35.9255 161.187 34.0003 160.285C30.6958 158.737 29.9091 153.901 32.1749 149.282C33.2247 147.136 34.572 145.205 36.4201 143.828C37.2983 143.179 37.5128 142.961 38.4512 142.515C41.166 141.221 44.6648 140.463 46.4499 137.922C47.4224 136.534 47.9832 134.909 48.5409 133.309C49.4393 135.521 50.3519 137.888 49.9198 140.208V140.217L49.9226 140.214Z" fill="#F04C23"/>
<path d="M26.4649 164.1C25.8699 164.1 25.3034 163.852 24.8659 163.402C24.4883 163.01 24.2306 162.495 24.0962 161.871C23.9848 161.356 24.0019 160.818 24.1505 160.269C23.9388 160.254 23.73 160.22 23.5271 160.166C22.8748 159.997 22.5029 159.633 22.3055 159.362C22.2626 159.304 22.2254 159.242 22.191 159.178C21.9909 158.795 21.8767 158.38 21.8535 157.948C21.8364 157.651 21.8478 157.333 21.885 157.007C21.9367 156.583 22.0509 156.145 22.2197 155.699C22.3714 155.301 22.5487 154.918 22.7518 154.554C22.9521 154.194 23.1666 153.856 23.3927 153.547C23.6243 153.232 23.8388 152.975 24.0505 152.757C24.0562 152.752 24.1249 152.683 24.1536 152.657C24.0448 152.586 23.936 152.508 23.8246 152.422C22.3484 151.318 21.8966 149.684 22.5887 147.941C23.0436 146.799 23.736 145.784 24.6485 144.919C25.5009 144.115 26.4964 143.411 27.6093 142.83C28.6764 142.272 29.8435 141.795 31.0763 141.411C32.2721 141.039 33.491 140.724 34.6982 140.472C35.8795 140.226 37.064 140.02 38.2226 139.863C39.344 139.708 40.3594 139.571 41.2722 139.451C42.1158 139.339 42.8053 139.239 43.3747 139.148C43.8725 139.067 44.293 138.959 44.6305 138.818C44.8135 138.744 45.0081 138.707 45.2027 138.707C45.4516 138.707 45.6976 138.77 45.9237 138.89C46.3212 139.107 46.6014 139.491 46.6843 139.937C46.7645 140.372 46.7474 140.862 46.6244 141.431C46.5329 141.869 46.407 142.304 46.2525 142.727C46.0951 143.16 45.9121 143.557 45.709 143.909C45.4601 144.336 45.0481 144.911 44.31 145.071C44.2557 145.082 44.2015 145.091 44.1441 145.097L41.7126 145.348C41.1061 145.417 40.4739 145.489 39.833 145.563L38.7488 145.686C38.3141 145.735 37.8734 145.792 37.433 145.852C37.4044 146.133 37.3271 146.41 37.2012 146.676C37.1555 146.774 37.0984 146.865 37.0325 146.951C36.8665 147.166 36.7006 147.386 36.5375 147.612C36.7378 147.578 36.9381 147.543 37.1441 147.509C37.6217 147.429 38.0908 147.34 38.54 147.243C38.6459 147.22 38.7518 147.209 38.8576 147.209C38.9377 147.209 39.0178 147.214 39.0979 147.229C39.8474 147.349 40.5512 148.027 40.4424 149.086C40.4165 149.329 40.3623 149.589 40.2679 149.878C40.1906 150.122 40.0847 150.391 39.9418 150.685C39.8273 150.923 39.7043 151.158 39.5784 151.381C39.4298 151.641 39.2838 151.862 39.1323 152.053C38.8062 152.474 38.4087 152.731 37.9621 152.814C37.9393 152.817 37.9163 152.823 37.8964 152.826C37.7078 152.852 37.5188 152.872 37.333 152.889C37.287 152.897 37.2413 152.9 37.1955 152.906L36.6006 152.949C35.9139 153.018 35.1817 153.095 34.4035 153.184C33.8743 153.244 33.3279 153.332 32.7728 153.45C32.358 154.156 31.9548 154.875 31.5658 155.587C31.0763 156.486 30.6274 157.359 30.2297 158.183C29.8319 159.001 29.4887 159.785 29.1998 160.515C28.9224 161.216 28.7165 161.846 28.5847 162.389C28.5619 162.484 28.5305 162.575 28.4903 162.664C27.9812 163.777 27.1686 164.032 26.7311 164.083C26.6424 164.095 26.5536 164.1 26.4649 164.1ZM27.2058 149.967C27.2058 149.967 27.2115 150.021 27.2488 150.11C27.2661 150.15 27.303 150.21 27.3462 150.268C27.8525 149.984 28.3673 149.73 28.8881 149.503C29.2228 148.908 29.5574 148.333 29.8805 147.781C29.5145 147.967 29.1543 148.176 28.808 148.396C28.3187 148.711 27.8925 149.054 27.5462 149.412C27.4061 149.558 27.2317 149.772 27.2058 149.967Z" fill="white"/>
<path d="M37.0879 151.398C37.2882 151.383 37.4885 151.36 37.6917 151.335C37.763 151.323 37.8488 151.249 37.9519 151.12C38.0548 150.991 38.1607 150.831 38.2664 150.642C38.3724 150.453 38.4809 150.25 38.5869 150.033C38.6927 149.815 38.7757 149.612 38.8358 149.423C38.896 149.237 38.933 149.074 38.9443 148.94C38.9588 148.805 38.9273 148.734 38.8588 148.722C38.3866 148.825 37.9005 148.917 37.3968 149C36.8962 149.085 36.4069 149.166 35.9378 149.243C35.4887 149.32 35.0454 149.4 34.6105 149.478C34.1729 149.555 33.7323 149.644 33.2831 149.746C34.1327 148.387 34.9852 147.151 35.8407 146.038C35.9523 145.803 35.9694 145.56 35.8893 145.311C35.8091 145.062 35.6833 144.833 35.5117 144.624C36.5387 144.455 37.5598 144.312 38.5784 144.195C39.5941 144.081 40.5893 143.966 41.5593 143.854L43.9907 143.603C44.1081 143.577 44.2453 143.428 44.4055 143.156C44.5632 142.884 44.709 142.57 44.8405 142.212C44.972 141.854 45.0749 141.488 45.155 141.122C45.2326 140.752 45.2496 140.449 45.2067 140.218C44.7604 140.401 44.2311 140.541 43.616 140.638C43.004 140.735 42.2858 140.838 41.4706 140.947C40.5609 141.067 39.5452 141.205 38.4295 141.359C37.3138 141.514 36.1697 141.711 35.0025 141.951C33.8357 142.192 32.6762 142.492 31.5239 142.853C30.3712 143.214 29.2981 143.651 28.3054 144.169C27.313 144.69 26.4374 145.305 25.6822 146.021C24.927 146.736 24.3608 147.563 23.986 148.505C23.5596 149.578 23.7656 150.505 24.7268 151.223C25.1702 151.555 25.4419 151.689 25.9768 151.758C26.5834 151.838 26.6951 151.718 26.7664 151.741C26.303 151.472 25.9797 150.988 25.8541 150.673C25.7251 150.356 25.6794 150.05 25.7197 149.755C25.7882 149.274 26.0371 148.814 26.4692 148.367C26.9008 147.921 27.4099 147.509 27.9994 147.131C28.5887 146.753 29.1953 146.424 29.8215 146.144C30.4482 145.866 30.9917 145.651 31.4466 145.503C31.7526 145.417 32.0617 145.334 32.3734 145.259C32.6853 145.185 33.0029 145.113 33.3203 145.051C32.8225 145.84 32.2819 146.719 31.7012 147.68C31.1176 148.642 30.5369 149.649 29.9504 150.699C29.1066 151.028 28.2827 151.443 27.4787 151.941C26.6749 152.439 25.891 153.063 25.133 153.813C24.9699 153.979 24.7983 154.19 24.6094 154.445C24.4208 154.7 24.2435 154.98 24.0744 155.286C23.9057 155.593 23.7571 155.91 23.6312 156.242C23.5053 156.571 23.4224 156.889 23.3852 157.192C23.3567 157.427 23.3479 157.653 23.3622 157.868C23.3737 158.085 23.4309 158.291 23.5338 158.486C23.6082 158.589 23.7369 158.666 23.923 158.715C24.1091 158.763 24.2949 158.781 24.4864 158.766C24.6751 158.752 24.8353 158.698 24.9643 158.609C25.093 158.517 25.1472 158.385 25.1302 158.211L25.0731 158.054C24.9614 157.928 24.8955 157.782 24.8728 157.619C24.8498 157.456 24.8469 157.292 24.8671 157.129C24.8955 156.917 24.9498 156.706 25.0273 156.494C25.1043 156.282 25.1958 156.085 25.3018 155.902C25.4078 155.719 25.5191 155.555 25.6336 155.407C25.7481 155.258 25.851 155.138 25.9425 155.04C26.3345 154.66 26.7493 154.322 27.184 154.03C27.619 153.738 28.0852 153.469 28.5745 153.226C28.214 153.91 27.8793 154.583 27.5676 155.241C27.2556 155.902 26.9724 156.537 26.7178 157.149C26.4632 157.762 26.2459 158.345 26.0683 158.895C25.891 159.447 25.7652 159.951 25.6967 160.409C25.5421 160.821 25.5049 161.201 25.5794 161.55C25.6538 161.899 25.7825 162.166 25.9598 162.352C26.1371 162.535 26.3374 162.615 26.5633 162.586C26.7894 162.558 26.9781 162.375 27.1355 162.034C27.2843 161.422 27.5076 160.735 27.8105 159.962C28.1139 159.19 28.4714 158.38 28.8862 157.524C29.2981 156.669 29.7558 155.784 30.2564 154.863C30.7571 153.941 31.2778 153.029 31.8185 152.119C32.6424 151.918 33.4519 151.772 34.2443 151.684C35.0369 151.595 35.7807 151.515 36.4785 151.443C36.693 151.429 36.899 151.412 37.0993 151.398V151.392L37.0879 151.398Z" fill="#F04C23"/>
<path d="M192.039 154.388H69.9646C68.0605 154.388 66.5176 152.844 66.5176 150.94V146.856C66.5176 144.952 68.0605 143.408 69.9646 143.408H192.039C193.943 143.408 195.486 144.952 195.486 146.856V150.94C195.486 152.844 193.943 154.388 192.039 154.388Z" fill="#FEB497"/>
<path opacity="0.2" d="M186.329 0L4.51144 181.873C1.75034 179.498 0 175.973 0 172.046V116.233L116.198 0H186.329Z" fill="white"/>
<path opacity="0.2" d="M282.492 0L97.5494 185H63.2344L248.179 0H282.492Z" fill="white"/>
</svg>
