<svg width="74" height="74" viewBox="0 0 74 74" fill="none" xmlns="http://www.w3.org/2000/svg">
<g clip-path="url(#clip0_9_2691)">
<path d="M54.5605 0H55.7168L56.3311 0.289062L56.7285 0.614258L57.0537 1.04785L57.415 1.66211L57.9932 2.67383L58.499 3.54102L59.0771 4.55273L59.4385 5.16699L60.5225 7.0459L61.0283 7.91309L62.1123 9.79199L62.6182 10.6592L63.1963 11.6709L64.208 13.4053L64.7861 14.417L65.292 15.2842L65.834 16.2236L66.3398 17.0908L66.918 18.1025L67.4961 19.0781L67.9658 19.9092L68.4717 20.7764L69.5557 22.6553L69.9531 23.3418L70.1338 23.8115L70.2061 24.1006V24.5342L70.0615 25.1123L69.7725 25.6543L69.4473 26.0156L69.0498 26.2686L68.5801 26.4492L68.2549 26.5215H53.874L53.4404 26.4854L53.7656 27.0635L54.4521 28.4365L54.9219 29.5205L55.3916 30.749L55.8252 32.0498L56.1865 33.3506L56.5117 34.7598L56.7646 36.2412L56.9092 37.3975L57.0176 38.6621L57.0537 39.4209V41.4443L56.9814 42.6367L56.873 43.793L56.7285 44.8408L56.5479 45.8525L56.2588 47.1895L55.8613 48.6709L55.7529 49.0322L65.5811 48.9961H71.1816L71.6875 49.1045L72.2295 49.3213L72.7354 49.6465L73.2051 50.0801L73.5303 50.5137L73.8193 51.0557L74 51.5254V71.4707L73.7109 72.1572L73.4941 72.5547L73.1328 73.0244L72.8076 73.3135L72.3018 73.6387L71.832 73.8555L71.5068 73.9639L71.4707 74H29.0508L28.3281 73.7109L27.9307 73.4941L27.5693 73.2051L27.1357 72.7715L26.8105 72.2656L26.5938 71.7959L26.4854 71.3623L26.4492 71.1094V68.8691L25.7988 68.833L24.6064 68.6885L23.0527 68.4355L21.6074 68.1104L20.1621 67.7129L18.4639 67.1348L17.5605 66.7734L16.4766 66.3037L14.959 65.5449L14.2002 65.1113L13.4775 64.6777L12.6826 64.1719L12.0684 63.7383L11.418 63.2686L10.876 62.835L10.5508 62.582L10.0811 62.1846L9.5752 61.751L9.10547 61.3174L8.56348 60.8115L7.80469 60.0527L7.55176 59.7637L7.29883 59.5107L6.97363 59.1133L6.6123 58.7158L6.21484 58.21L5.78125 57.668L5.27539 56.9814L4.69727 56.1504L4.15527 55.2832L3.83008 54.7412L3.28809 53.7656L2.70996 52.6094L2.3125 51.7422L1.84277 50.5859L1.40918 49.3574L1.01172 48.0566L0.686523 46.7559L0.433594 45.4912L0.25293 44.3711L0.0722656 42.8535L0 42.1309V38.626L0.25293 36.458L0.505859 34.9404L0.794922 33.6035L1.19238 32.1582L1.62598 30.8574L2.05957 29.7012L2.5293 28.6172L2.96289 27.7139L3.39648 26.8467L3.83008 26.0879L4.19141 25.4736L4.7334 24.6426L5.13086 24.0645L5.49219 23.5586L5.92578 22.9805L6.39551 22.4023L6.7207 22.0049L7.0459 21.6436L7.37109 21.2461L7.69629 20.9209L7.94922 20.6318L8.9248 19.6562L9.21387 19.4033L9.71973 18.9336L10.1172 18.6084L10.4785 18.2832L11.0566 17.8496L11.5986 17.416L12.2852 16.9463L12.8994 16.5127L13.6582 16.043L14.2002 15.7178L15.1758 15.1758L16.6934 14.417L18.0664 13.8389L19.1504 13.4414L20.3789 13.0439L21.8604 12.6465L23.4502 12.3213L24.6064 12.1406L25.1846 12.0684L25.2568 12.0322L25.293 7.47949H23.2334L22.7998 7.37109L22.3662 7.1543L22.0049 6.8291L21.7881 6.57617L21.5352 6.07031L21.4629 5.78125V5.05859L21.6436 4.5166L21.9688 4.04688L22.3301 3.72168L22.8359 3.46875L23.0889 3.39648L23.4502 3.36035H33.4951L33.9648 3.39648L34.3262 3.50488L34.7236 3.72168L35.085 4.04688L35.3379 4.37207L35.5547 4.8418L35.627 5.23926V5.60059L35.5186 6.10645L35.3018 6.54004L35.0127 6.90137L34.6514 7.19043L34.2539 7.37109L33.7842 7.47949H31.7969V12.0684L32.7363 12.1768L34.1816 12.4297L35.4824 12.7188L36.6748 13.0439L38.2285 13.5498L39.7822 14.1641L40.7217 14.5977L41.625 15.0312L42.4922 15.501L43.4678 16.0791L44.1543 16.5127L44.2988 16.585L44.7324 15.8262L45.2383 14.959L45.7803 14.0195L46.0693 13.5498L46.2861 13.1523L46.8643 12.1406L47.3701 11.2734L47.6592 10.8037L47.876 10.4062L48.4541 9.39453L48.7432 8.9248L48.96 8.52734L50.0439 6.64844L50.5498 5.78125L51.6338 3.90234L52.1396 3.03516L52.3564 2.60156L52.8623 1.73438L53.1514 1.26465L53.332 0.939453L53.6211 0.578125L54.0547 0.25293L54.3438 0.108398L54.5605 0Z" fill="#F0885F"/>
<path d="M27.4609 16.332H29.376L30.9297 16.4404L32.1582 16.585L33.5674 16.8379L34.6514 17.0908L35.6992 17.3799L36.9639 17.8135L38.1201 18.2832L39.2041 18.7891L40.252 19.3311L41.0469 19.8008L41.8418 20.3066L42.5645 20.8125L42.9619 21.1016L43.4316 21.4629L44.0098 21.9326L44.3711 22.2578L44.7686 22.583L45.1299 22.9443L45.2383 23.0166V23.0889L45.3828 23.1611L45.9609 23.7393L46.2139 24.0283L46.3945 24.209V24.2812H46.4668L46.7197 24.5703L47.0449 24.9678L47.5508 25.582L47.9844 26.1602L48.418 26.7744L48.7793 27.3164L49.249 28.0752L49.5742 28.6533L50.0078 29.4482L50.5137 30.4961L51.0195 31.6885L51.5254 33.1699L51.8506 34.3262L52.1758 35.7354L52.4287 37.2891L52.5732 38.6982L52.6094 39.2764V41.6973L52.501 42.998L52.3203 44.3711L52.0312 45.8164L51.6699 47.2256L51.2363 48.5264L51.0557 48.9961L51.0195 49.0322H45.2744L29.2314 49.0684L28.5811 49.249L28.0029 49.5381L27.6055 49.8271L27.208 50.2246L26.9551 50.5859L26.7021 51.1279L26.5576 51.6338L26.5215 51.8867L26.4854 64.3887H25.9072L24.3174 64.1357L23.0527 63.8828L21.9326 63.5938L20.8848 63.2686L19.7646 62.8711L18.8975 62.5098L17.958 62.0762L17.0186 61.6064L16.2598 61.1729L15.501 60.7031L14.959 60.3418L14.4531 59.9805L13.875 59.5469L13.4053 59.1855L12.3936 58.3184L11.8154 57.7764L10.876 56.8369L10.623 56.5479L10.2979 56.1865L9.97266 55.7891L9.50293 55.2109L9.06934 54.6328L8.63574 54.0186L8.27441 53.4766L7.80469 52.7178L7.29883 51.8145L6.9375 51.1279L6.50391 50.2246L6.07031 49.1768L5.74512 48.2734L5.34766 47.0449L5.02246 45.7441L4.76953 44.4434L4.58887 43.1064L4.48047 41.8779L4.44434 41.1553V39.71L4.5166 38.4814L4.66113 37.1445L4.8418 35.9883L5.09473 34.7959L5.38379 33.6758L5.88965 32.1221L6.43164 30.7852L6.9375 29.7012L7.44336 28.7256L7.84082 28.0391L8.27441 27.3525L8.85254 26.4854L9.06934 26.1963L9.43066 25.7266L9.82812 25.2207L10.2256 24.751L10.4785 24.4619L10.8037 24.1006L11.0928 23.8115L11.3457 23.5225L11.9238 22.9443L12.2129 22.6914L12.7188 22.2217L13.1162 21.8965L13.5498 21.5352L14.2725 20.9932L14.9229 20.5234L15.6455 20.0537L16.2959 19.6562L17.0547 19.2227L18.1025 18.6807L18.9697 18.2832L20.3428 17.7412L21.7881 17.2715L23.0527 16.9463L24.2451 16.6934L25.7627 16.4766L27.4609 16.332Z" fill="#F7F7F7"/>
<path d="M54.5605 0H55.7168L56.3311 0.289062L56.7285 0.614258L57.0537 1.04785L57.415 1.66211L57.9932 2.67383L58.499 3.54102L59.0771 4.55273L59.4385 5.16699L60.5225 7.0459L61.0283 7.91309L62.1123 9.79199L62.6182 10.6592L63.1963 11.6709L64.208 13.4053L64.7861 14.417L65.292 15.2842L65.834 16.2236L66.3398 17.0908L66.918 18.1025L67.4961 19.0781L67.9658 19.9092L68.4717 20.7764L69.5557 22.6553L69.9531 23.3418L70.1338 23.8115L70.2061 24.1006V24.5342L70.0615 25.1123L69.7725 25.6543L69.4473 26.0156L69.0498 26.2686L68.5801 26.4492L68.2549 26.5215H53.874L53.4404 26.4854L53.7656 27.0635L54.4521 28.4365L54.9219 29.5205L55.3916 30.749L55.8252 32.0498L56.1865 33.3506L56.5117 34.7598L56.7646 36.2412L56.9092 37.3975L57.0176 38.6621L57.0537 39.4209V41.4443L56.9814 42.6367L56.873 43.793L56.7285 44.8408L56.5479 45.8525L56.2588 47.1895L55.8613 48.6709L55.7168 48.9961L55.6445 49.0322H51.2363L51.0557 48.96L51.417 47.9121L51.7422 46.8281L52.0674 45.4912L52.3203 44.1543L52.501 42.6367L52.5732 41.6973V39.2764L52.4648 37.9395L52.3203 36.7832L52.0674 35.374L51.6338 33.6396L51.1279 32.0859L50.7305 31.0742L50.1885 29.8818L49.791 29.0869L49.4297 28.4365L48.9238 27.6055L48.5625 27.0273L48.2012 26.5215L47.7314 25.8711L47.2617 25.293L46.9727 24.9316L46.5752 24.4619L46.4668 24.3535V24.2812H46.3945L46.1416 23.9922L45.5996 23.4141L45.3105 23.125L45.0215 22.8721L44.7324 22.583L44.335 22.2578L43.9014 21.8604L43.3955 21.4629L42.9619 21.1377L42.4199 20.7402L41.4443 20.0898L40.9746 19.8008L40.5771 19.5479L40.1797 19.3311L38.9873 18.7168L38.0479 18.2832L36.8555 17.8135L35.5547 17.3799L34.543 17.0908L33.2061 16.8018L31.9053 16.585L30.5322 16.4404L29.376 16.3682H27.4609L25.7627 16.5127L24.2451 16.7295L22.9082 17.0186L21.7881 17.3076L20.2344 17.8135L18.7168 18.4277L17.4521 19.042L16.585 19.5117L15.8623 19.9453L14.6699 20.7402L13.9834 21.2461L13.333 21.752L12.3213 22.6191L11.9961 22.9443L11.707 23.1973L11.165 23.7393L10.9121 24.0283L10.5869 24.3535L10.334 24.6426L9.82812 25.2568L9.43066 25.7627L9.10547 26.1963L8.81641 26.5938L8.45508 27.1357L8.05762 27.75L7.73242 28.292L7.1543 29.3398L6.54004 30.6045L6.07031 31.7607L5.74512 32.6641L5.41992 33.6758L5.13086 34.7959L4.87793 35.9883L4.69727 37.1445L4.55273 38.4814L4.48047 39.71V41.1553L4.55273 42.3477L4.69727 43.7207L4.91406 45.0215L5.20312 46.3584L5.52832 47.5146L6.03418 48.9961L6.46777 50.0439L6.86523 50.9111L7.29883 51.7783L7.80469 52.6455L8.23828 53.3682L8.59961 53.9102L9.0332 54.5244L9.3584 54.958L9.75586 55.4639L10.0449 55.8252L10.4785 56.3311L10.876 56.7646L11.1289 57.0537L12.1406 58.0654L12.4297 58.3184L12.791 58.6436L13.1885 58.9688L13.6221 59.3301L14.2002 59.7637L14.7422 60.1611L15.2842 60.5225L15.9707 60.9561L16.585 61.3174L17.3799 61.751L18.3193 62.2207L19.1504 62.582L20.1621 62.9795L21.4268 63.4131L22.4746 63.7021L23.5586 63.9551L24.9678 64.208L26.4131 64.4248L26.4492 64.4609L26.4854 65.834L27.75 65.9785L28.5811 66.1592L29.5566 66.4844L30.3154 66.8457L31.0381 67.2793L31.3633 67.5322L31.7246 67.8213L32.1582 68.2188L32.5195 68.5801L32.8447 68.9775L33.2422 69.5195L33.6758 70.2783L33.9648 70.8926L34.29 71.8682L34.4707 72.7354L34.6152 73.8916V74H29.0508L28.3281 73.7109L27.9307 73.4941L27.5693 73.2051L27.1357 72.7715L26.8105 72.2656L26.5938 71.7959L26.4854 71.3623L26.4492 71.1094V68.8691L25.7988 68.833L24.6064 68.6885L23.0527 68.4355L21.6074 68.1104L20.1621 67.7129L18.4639 67.1348L17.5605 66.7734L16.4766 66.3037L14.959 65.5449L14.2002 65.1113L13.4775 64.6777L12.6826 64.1719L12.0684 63.7383L11.418 63.2686L10.876 62.835L10.5508 62.582L10.0811 62.1846L9.5752 61.751L9.10547 61.3174L8.56348 60.8115L7.80469 60.0527L7.55176 59.7637L7.29883 59.5107L6.97363 59.1133L6.6123 58.7158L6.21484 58.21L5.78125 57.668L5.27539 56.9814L4.69727 56.1504L4.15527 55.2832L3.83008 54.7412L3.28809 53.7656L2.70996 52.6094L2.3125 51.7422L1.84277 50.5859L1.40918 49.3574L1.01172 48.0566L0.686523 46.7559L0.433594 45.4912L0.25293 44.3711L0.0722656 42.8535L0 42.1309V38.626L0.25293 36.458L0.505859 34.9404L0.794922 33.6035L1.19238 32.1582L1.62598 30.8574L2.05957 29.7012L2.5293 28.6172L2.96289 27.7139L3.39648 26.8467L3.83008 26.0879L4.19141 25.4736L4.7334 24.6426L5.13086 24.0645L5.49219 23.5586L5.92578 22.9805L6.39551 22.4023L6.7207 22.0049L7.0459 21.6436L7.37109 21.2461L7.69629 20.9209L7.94922 20.6318L8.9248 19.6562L9.21387 19.4033L9.71973 18.9336L10.1172 18.6084L10.4785 18.2832L11.0566 17.8496L11.5986 17.416L12.2852 16.9463L12.8994 16.5127L13.6582 16.043L14.2002 15.7178L15.1758 15.1758L16.6934 14.417L18.0664 13.8389L19.1504 13.4414L20.3789 13.0439L21.8604 12.6465L23.4502 12.3213L24.6064 12.1406L25.1846 12.0684L25.2568 12.0322L25.293 7.47949H23.2334L22.7998 7.37109L22.3662 7.1543L22.0049 6.8291L21.7881 6.57617L21.5352 6.07031L21.4629 5.78125V5.05859L21.6436 4.5166L21.9688 4.04688L22.3301 3.72168L22.8359 3.46875L23.0889 3.39648L23.4502 3.36035H33.4951L33.9648 3.39648L34.3262 3.50488L34.7236 3.72168L35.085 4.04688L35.3379 4.37207L35.5547 4.8418L35.627 5.23926V5.60059L35.5186 6.10645L35.3018 6.54004L35.0127 6.90137L34.6514 7.19043L34.2539 7.37109L33.7842 7.47949H31.7969V12.0684L32.7363 12.1768L34.1816 12.4297L35.4824 12.7188L36.6748 13.0439L38.2285 13.5498L39.7822 14.1641L40.7217 14.5977L41.625 15.0312L42.4922 15.501L43.4678 16.0791L44.1543 16.5127L44.2988 16.585L44.7324 15.8262L45.2383 14.959L45.7803 14.0195L46.0693 13.5498L46.2861 13.1523L46.8643 12.1406L47.3701 11.2734L47.6592 10.8037L47.876 10.4062L48.4541 9.39453L48.7432 8.9248L48.96 8.52734L50.0439 6.64844L50.5498 5.78125L51.6338 3.90234L52.1396 3.03516L52.3564 2.60156L52.8623 1.73438L53.1514 1.26465L53.332 0.939453L53.6211 0.578125L54.0547 0.25293L54.3438 0.108398L54.5605 0Z" fill="#FF4800"/>
<path d="M54.5605 0H55.7168L56.3311 0.289062L56.7285 0.614258L57.0537 1.04785L57.415 1.66211L57.9932 2.67383L58.499 3.54102L59.0771 4.55273L59.4385 5.16699L60.5225 7.0459L61.0283 7.91309L62.1123 9.79199L62.6182 10.6592L63.1963 11.6709L64.208 13.4053L64.7861 14.417L65.292 15.2842L65.834 16.2236L66.3398 17.0908L66.918 18.1025L67.4961 19.0781L67.9658 19.9092L68.4717 20.7764L69.5557 22.6553L69.9531 23.3418L70.1338 23.8115L70.2061 24.1006V24.5342L70.0615 25.1123L69.7725 25.6543L69.4473 26.0156L69.0498 26.2686L68.5801 26.4492L68.2549 26.5215H53.874L53.4404 26.4854L53.1514 26.0156L52.6455 25.1846L52.248 24.5703L51.8506 23.9922L51.4531 23.4502L50.9834 22.8359L50.5859 22.3301L50.1162 21.7881L49.7549 21.3906L49.502 21.1016L49.1768 20.7402L48.0928 19.6562L47.8037 19.4033L47.5508 19.1504L47.1895 18.8613L46.792 18.5L46.2861 18.1025L45.6357 17.5967L44.9854 17.127L44.5156 16.8018L44.335 16.6211L44.4072 16.4043L44.877 15.5732L45.3828 14.7061L45.9248 13.7666L46.2861 13.1523L46.8643 12.1406L47.3701 11.2734L47.6592 10.8037L47.876 10.4062L48.4541 9.39453L48.7432 8.9248L48.96 8.52734L50.0439 6.64844L50.5498 5.78125L51.6338 3.90234L52.1396 3.03516L52.3564 2.60156L52.8623 1.73438L53.1514 1.26465L53.332 0.939453L53.6211 0.578125L54.0547 0.25293L54.3438 0.108398L54.5605 0Z" fill="#F0885F"/>
<path d="M49.5381 53.6211H50.9111L51.6338 53.7295L52.5371 53.9463L53.1514 54.1631L53.7295 54.416L54.416 54.8135L55.0303 55.2471L55.5 55.6445L55.8613 55.9697L56.2227 56.3672L56.6924 56.9814L57.126 57.668L57.5234 58.499L57.8125 59.3662L57.9932 60.1611L58.1016 60.9199V62.1484L57.9209 63.2324L57.7041 64.0273L57.4873 64.6055L57.1982 65.2197L56.8369 65.834L56.4395 66.376L56.042 66.8457L55.3916 67.4961L54.8857 67.8936L54.3438 68.2549L53.6934 68.6162L52.8262 68.9775L51.9229 69.2305L51.0918 69.375L50.6221 69.4111H49.8271L49.1045 69.3389L48.1289 69.1221L47.5508 68.9414L47.0088 68.7246L46.1777 68.291L45.7441 68.002L45.3105 67.6768L44.9492 67.3516L44.5156 66.9541L44.082 66.4482L43.6123 65.7979L43.251 65.1475L42.9619 64.5693L42.709 63.8467L42.5283 63.1963L42.3838 62.2568L42.3477 61.7871V61.2451L42.4199 60.4502L42.5645 59.6553L42.7451 59.0049L42.9619 58.4268L43.251 57.8125L43.6846 57.0898L44.0459 56.6201L44.3711 56.2227L45.0215 55.5723L45.5273 55.1748L46.1055 54.7773L46.6113 54.4883L47.2979 54.1631L48.2734 53.8379L48.9961 53.6934L49.5381 53.6211Z" fill="#FF4800"/>
<path d="M23.4502 3.36035H33.4951L33.9648 3.39648L34.3262 3.50488L34.7236 3.72168L35.085 4.04688L35.3379 4.37207L35.5547 4.8418L35.627 5.23926V5.60059L35.5186 6.10645L35.3018 6.54004L35.0127 6.90137L34.6514 7.19043L34.2539 7.37109L33.7842 7.47949H31.7969V12.0322H31.3271L29.665 11.9238H27.7861L25.293 12.0322V7.47949H23.2334L22.7998 7.37109L22.3662 7.1543L22.0049 6.8291L21.7881 6.57617L21.5352 6.07031L21.4629 5.78125V5.05859L21.6436 4.5166L21.9688 4.04688L22.3301 3.72168L22.8359 3.46875L23.0889 3.39648L23.4502 3.36035Z" fill="#FF4800"/>
<path d="M66.0869 48.9961H71.1816L71.6875 49.1045L72.2295 49.3213L72.7354 49.6465L73.2051 50.0801L73.5303 50.5137L73.8193 51.0557L74 51.5254V57.1982L73.0244 57.0898L72.4102 56.9814L71.543 56.7646L70.8564 56.5117L70.0977 56.1504L69.2305 55.6084L68.6162 55.1025L67.8936 54.3799L67.4238 53.7656L67.0625 53.2236L66.665 52.501L66.3037 51.5977L66.0869 50.8389L65.9424 50.0078L65.834 49.0322L66.0869 48.9961Z" fill="#FF4800"/>
<path d="M73.5303 65.8701H74V71.4707L73.7109 72.1572L73.4941 72.5547L73.1328 73.0244L72.8076 73.3135L72.3018 73.6387L71.832 73.8555L71.5068 73.9639L71.4707 74H65.8701L65.9062 73.4219L66.0146 72.5547L66.2314 71.6152L66.4482 71.001L66.7373 70.3506L67.0625 69.7725L67.3516 69.3389L67.7129 68.8691L68.0381 68.4717L68.3633 68.1104L68.8691 67.6768L69.5195 67.207L70.3867 66.7012L70.9648 66.4482L71.832 66.1592L72.8799 65.9424L73.5303 65.8701Z" fill="#FF4800"/>
<path d="M26.5215 65.8701L27.4609 65.9424L28.292 66.0869L29.1592 66.3398L29.8818 66.6289L30.6406 67.0264L31.0742 67.3154L31.5078 67.6406L32.0137 68.0742L32.5195 68.5801L32.8447 68.9775L33.2422 69.5195L33.6758 70.2783L33.9648 70.8926L34.29 71.8682L34.4707 72.7354L34.6152 73.8916V74H29.0508L28.3281 73.7109L27.9307 73.4941L27.5693 73.2051L27.1357 72.7715L26.8105 72.2656L26.5938 71.7959L26.4854 71.3623L26.4492 71.1094V66.0508L26.5215 65.8701Z" fill="#FF4800"/>
<path d="M29.2314 49.0322H34.5791L34.6152 49.1768L34.5068 50.1162L34.3623 50.9111L34.1455 51.6699L33.8564 52.3926L33.459 53.1514L33.0254 53.8018L32.5557 54.3799L32.2305 54.7412L31.9053 55.0664L31.3994 55.4639L30.9658 55.7891L30.207 56.2227L29.5205 56.5479L28.5449 56.873L27.6416 57.0537L26.5215 57.1621L26.4854 57.126V51.8867L26.5938 51.3447L26.7744 50.875L26.9551 50.5498L27.2441 50.1523L27.6777 49.7188L28.1836 49.3936L28.6533 49.1768L29.2314 49.0322Z" fill="#FF4800"/>
<path d="M31.7607 7.47949H31.7969V12.0322H31.3271L29.665 11.9238H27.7861L25.293 12.0322V7.51562L31.7607 7.47949Z" fill="#F0885F"/>
<path d="M34.6152 28.6172H34.9766L35.374 28.7617L35.6631 29.0146L35.8438 29.3037L35.916 29.5205V29.8818L35.7354 30.3154L35.374 30.9658L34.9043 31.7607L34.3262 32.7363L31.7969 37.0723L31.5439 37.4697L31.3271 37.8672L30.8213 38.7344L30.6045 39.0234L30.4238 38.8428L30.0264 38.4814L29.5928 38.2285L29.123 38.0479L28.7256 37.9395L28.7979 37.7227L29.0146 37.3975L29.3037 36.8916L30.3154 35.1572L30.6768 34.543L31.0742 33.8564L31.5439 33.0615L31.9053 32.4473L32.4111 31.5801L32.7725 30.9658L33.2783 30.0986L33.6396 29.4844L33.8926 29.0869L34.0371 28.9062L34.3623 28.6895L34.6152 28.6172Z" fill="#BC3E30"/>
<path d="M55.0303 7.80469H55.3193L55.7168 7.94922L56.0059 8.20215L56.1865 8.45508L56.2588 8.70801L56.2949 10.1533V17.0547L56.2227 17.5244L56.042 17.8496L55.8613 18.0303L55.5723 18.2109L55.3555 18.2832H54.958L54.6689 18.1748L54.3799 17.958L54.1631 17.6689L54.0547 17.3076L54.0186 16.9463L53.9824 14.6338V12.6465L54.0186 8.96094L54.0908 8.56348L54.2354 8.27441L54.4883 8.02148L54.7773 7.87695L55.0303 7.80469Z" fill="#F7F7F7"/>
<path d="M28.6533 37.9033L29.2314 38.0479L29.665 38.2285L30.0625 38.4814L30.4961 38.8789L30.6045 38.9873L30.6406 39.1318L30.8936 39.6738L31.0381 40.1074L31.0742 40.6133L31.002 40.9746L30.8213 41.4443L30.6045 41.8418L30.207 42.3115L29.8818 42.5645L29.5205 42.7812L28.9785 42.9619L28.7256 42.998H28.4004L27.9307 42.9258L27.4609 42.7451L27.0273 42.4561L26.7021 42.167L26.377 41.7334L26.124 41.2275L26.0156 40.7578V40.2881L26.0879 39.8184L26.2686 39.3486L26.5576 38.915L26.666 38.7705H26.7383L26.8105 38.626L27.2441 38.3008L27.6055 38.1201L28.0752 37.9756L28.5811 37.9395L28.6533 37.9033Z" fill="#EF6D3A"/>
<path d="M46.3223 39.3125H47.7676L48.2012 39.3848L48.4902 39.6016L48.7432 39.8906L48.8877 40.2881V40.5771L48.7793 40.8662L48.5625 41.1553L48.2734 41.4082L48.0205 41.5166L47.623 41.5527H46.25L45.8164 41.4805L45.4551 41.2637L45.2021 40.9746L45.0576 40.6133V40.1797L45.166 39.8545L45.3828 39.6016L45.5996 39.457L45.9609 39.3486L46.3223 39.3125Z" fill="#FF4800"/>
<path d="M9.39453 39.3125H10.8398L11.2373 39.3486L11.5264 39.4932L11.8154 39.7822L11.9961 40.1436L12.0322 40.2881V40.5771L11.9238 40.9023L11.6348 41.2637L11.3818 41.4443L11.1289 41.5166L10.6592 41.5527H9.3584L8.96094 41.4805L8.59961 41.2637L8.34668 40.9746L8.20215 40.6133V40.252L8.31055 39.8545L8.49121 39.6377L8.67188 39.4932L9.10547 39.3486L9.39453 39.3125Z" fill="#FF4800"/>
<path d="M44.9854 29.7012H45.4912L45.7803 29.8457L46.1416 30.207L46.3223 30.6406V30.9658L46.1055 31.3994L45.8164 31.6885L45.2744 32.0498L44.2988 32.5918L43.9375 32.7363H43.6123L43.2871 32.5918L42.9258 32.2666L42.7451 31.9775L42.6729 31.7607V31.4355L42.8174 31.0742L43.0703 30.7852L43.4316 30.5322L43.9736 30.207L44.4072 29.9541L44.9854 29.7012Z" fill="#FF4800"/>
<path d="M37.9756 22.6553H38.4092L38.8428 22.8721V22.9443L38.9873 23.0166L39.2041 23.3418L39.2764 23.5586V23.9199L38.9512 24.6064L38.5537 25.293L38.2646 25.7266L37.9395 26.0879L37.6504 26.2686L37.542 26.3047H37.1807L36.7471 26.0879L36.5664 25.9434L36.3135 25.582L36.2412 25.3652V25.0762L36.3857 24.6064L36.7109 23.9922L37.2168 23.1973L37.5059 22.8721L37.8311 22.6914L37.9756 22.6553Z" fill="#FF4800"/>
<path d="M13.0801 48.1289H13.5498L13.8389 48.2734L14.1641 48.5625L14.3447 48.9238L14.417 49.1406V49.3936L14.2363 49.7549L14.0557 49.9717L13.6221 50.2969L13.0439 50.6582L12.6104 50.9111L12.0684 51.1641H11.6709L11.3096 50.9834L11.1289 50.8389L10.8398 50.4414L10.7676 50.2246V49.8271L10.9121 49.4658L11.2012 49.1768L11.7432 48.8154L12.4297 48.418L12.9717 48.165L13.0801 48.1289Z" fill="#FF4800"/>
<path d="M19.5117 54.5605H19.9453L20.2344 54.6689L20.5957 54.9941L20.8125 55.3916L20.8486 55.7168L20.7402 56.0781L20.4512 56.6562L19.9814 57.4512L19.6201 57.9209L19.2949 58.1377L19.1504 58.21H18.7529L18.4277 58.0654L18.1387 57.8486L17.8857 57.4873L17.8135 57.3066V56.9092L18.0664 56.3311L18.4277 55.6807L18.7529 55.1748L19.042 54.8135L19.3311 54.6328L19.5117 54.5605Z" fill="#FF4800"/>
<path d="M28.6172 20.0537L28.9785 20.1621L29.2676 20.3789L29.5205 20.668L29.5928 20.8486L29.6289 21.4629V23.0527L29.5566 23.3057L29.3037 23.5947L28.9062 23.8838L28.7979 23.9199H28.3643L28.0029 23.7754L27.6416 23.4502L27.4971 23.2334L27.4248 22.8359V21.8242L27.4609 20.957L27.5332 20.6318L27.8945 20.2705L28.2559 20.0898L28.6172 20.0537Z" fill="#FF4800"/>
<path d="M18.7529 22.6553H19.1504L19.4395 22.7637L19.8008 23.0889L20.126 23.5947L20.6318 24.5342L20.8125 24.9678L20.8486 25.3291L20.7402 25.6182L20.415 26.0156L20.0176 26.2686L19.9453 26.3047H19.584L19.1504 26.0879L18.8975 25.835L18.5361 25.293L18.2471 24.7871L17.8857 24.1367L17.8135 23.9199V23.4863L18.0303 23.0889L18.3555 22.7998L18.7529 22.6553Z" fill="#FF4800"/>
<path d="M11.6709 29.7012H12.0684L12.7188 29.9902L13.2969 30.3154L13.9111 30.749L14.2002 31.0381L14.3809 31.3994L14.417 31.5078V31.7969L14.2002 32.1943L13.9473 32.4834L13.6221 32.7002L13.5137 32.7363H13.1885L12.7188 32.5557L12.1045 32.2305L11.6348 31.9414L11.2012 31.6162L10.9482 31.3633L10.7676 31.002V30.5684L10.9844 30.1348L11.2734 29.8818L11.5625 29.7373L11.6709 29.7012Z" fill="#FF4800"/>
<path d="M54.958 20.3428H55.3916L55.7529 20.4873L55.9697 20.668L56.1865 21.0293L56.2227 21.1377V21.7158L56.0781 22.0771L55.8613 22.3301L55.5361 22.5107L55.3916 22.5469H54.8857L54.5244 22.4023L54.2715 22.1133L54.0908 21.6797V21.1738L54.2354 20.8486L54.4883 20.5596L54.7051 20.415L54.958 20.3428Z" fill="#F7F7F7"/>
<path d="M43.7568 48.0928L44.0098 48.1289L44.8408 48.5625L45.3828 48.8877L45.4189 48.9961L45.2744 49.0322H42.709L42.7812 48.7432L42.998 48.4902L43.3955 48.2373L43.7568 48.0928Z" fill="#FF4800"/>
<path d="M12.4297 22.4746L12.502 22.5107L10.5869 24.4258V24.3174L11.0928 23.8115L11.3457 23.5225L11.9238 22.9443L12.2129 22.6914L12.4297 22.4746Z" fill="#DCEEF4"/>
</g>
<defs>
<clipPath id="clip0_9_2691">
<rect width="74" height="74" fill="white"/>
</clipPath>
</defs>
</svg>
