<svg width="74" height="74" viewBox="0 0 74 74" fill="none" xmlns="http://www.w3.org/2000/svg">
<g clip-path="url(#clip0_9_2724)">
<path d="M32.6279 20.6318L34.001 20.7764L35.0127 20.957L36.0967 21.21L37.1445 21.5352L38.2285 21.9688L39.2764 22.4746L40.0713 22.9082L40.9023 23.4502L41.4082 23.8115L41.9141 24.209L42.3115 24.5342L42.6006 24.7871L42.5283 24.9678L41.9863 25.5098L41.7334 25.7988L40.6494 26.8828L40.5049 27.1357L40.4688 27.2803V27.6416L40.6133 27.9307L40.8662 28.1475L41.2275 28.2559L41.5889 28.1836L41.8057 28.0391L42.2393 27.6416L43.3594 26.5215L43.6484 26.2686L43.793 26.0879L43.9375 26.124L44.3711 26.6299L44.7686 27.1357L45.1299 27.6416L45.4912 28.1836L45.8164 28.7256L46.1777 29.376L46.4668 29.918L46.8643 30.8213L47.2256 31.7969L47.5146 32.7363L47.7676 33.8203L47.9482 34.9043L48.0566 35.916V36.0967L47.9844 36.1328L44.9854 36.1689L44.6963 36.3135L44.5156 36.5303L44.4072 36.7832V37.1445L44.5879 37.5059L44.8047 37.6865L44.9854 37.7588L45.2383 37.7949L48.0205 37.8311L48.0566 37.8672L47.9844 38.7705L47.8398 39.7822L47.623 40.8301L47.334 41.8418L47.0811 42.6006L46.7559 43.3955L46.3584 44.2627L45.9971 44.9131L45.7803 45.3105L45.4912 45.7803L45.2021 46.2139L44.8047 46.7559L44.5518 47.0811L44.2627 47.4424L43.8652 47.9121L43.6484 47.7676L41.8057 45.9248L41.4443 45.7441H41.0469L40.6855 45.9248L40.5049 46.1777L40.4326 46.6113L40.541 46.9727L40.7578 47.2617L42.6006 49.1045L42.5645 49.249L41.7695 49.8994L41.1191 50.3691L40.4688 50.8027L39.6738 51.2725L38.8428 51.7061L38.1562 52.0312L36.9277 52.501L35.6992 52.8623L34.4707 53.1152L33.4951 53.2598L32.7725 53.332H32.5557L32.5195 53.2959L32.4834 50.2969L32.3027 49.9355L32.1221 49.791L31.8691 49.6826H31.5078L31.2188 49.791L30.9658 50.0801L30.8936 50.2607L30.8574 52.2842V53.2959L30.8213 53.332L30.1348 53.2959L29.0508 53.1514L27.9668 52.9346L26.8105 52.6094L25.6904 52.2119L24.7871 51.8145L23.9199 51.3809L22.9443 50.8027L22.1494 50.2607L21.5352 49.791L21.1377 49.4658L20.7764 49.1406L20.8125 48.9961L21.1738 48.6709L22.1855 47.6592H22.2578L22.3301 47.5146L22.6191 47.2617L22.9082 46.9004L22.9805 46.5029L22.8721 46.1416L22.6553 45.8887L22.3301 45.7441H21.9326L21.6436 45.8887L20.7041 46.8281L20.415 47.0811L19.6562 47.8398L19.6201 47.9121L19.4756 47.8398L19.0781 47.4062L18.6084 46.792L18.1025 46.1055L17.6328 45.3467L17.1992 44.5879L16.6934 43.54L16.2959 42.5283L15.9346 41.4082L15.6816 40.3604L15.4648 39.0596L15.3564 38.084V37.8311L18.1387 37.7949L18.5361 37.7227L18.7891 37.542L18.9336 37.2891L18.9697 37.1445V36.7832L18.8252 36.458L18.5723 36.2412L18.3916 36.1689L15.3926 36.1328L15.3564 36.0967L15.4287 35.1572L15.6094 33.9648L15.8262 32.9893L16.0791 32.0859L16.4404 31.0381L16.9102 29.9541L17.4521 28.9062L17.9941 28.0391L18.2832 27.6055L18.5723 27.208L18.9336 26.7383L19.4033 26.1602L19.5117 26.0518L19.6562 26.0879L19.9814 26.4492L20.4512 26.9189L20.668 27.0996L20.8848 27.3525L21.1016 27.5332L21.3545 27.8223L21.752 28.1475L22.1133 28.2559L22.4746 28.1836L22.6914 28.0391L22.8721 27.8223L22.9443 27.6416V27.2441L22.7637 26.8828L20.7764 24.8955L20.8125 24.7148L21.1016 24.498L21.5352 24.1367L22.2217 23.6309L22.583 23.3779L23.2695 22.9443L23.8477 22.6191L24.6787 22.1855L25.4014 21.8604L26.4492 21.4629L27.5693 21.1377L28.5088 20.9209L29.376 20.7764L30.3516 20.668H30.8213L30.8574 20.7041V23.2695L30.8936 23.7031L31.002 23.9561L31.1826 24.1367L31.4717 24.2812H31.9053L32.1943 24.1367L32.4111 23.8838L32.4834 23.7031L32.5195 20.7041L32.6279 20.6318ZM31.4717 28.7617L31.1104 28.9424L30.8936 29.2676L30.8574 29.376L30.8213 32.7002V34.6514L30.6045 34.7236L30.207 34.9766L29.8096 35.3379L29.4844 35.8438L29.3037 36.3496L29.2314 36.7832V37.1807L29.3398 37.7588L29.5205 38.1562L29.7373 38.5176L30.0625 38.8789L30.4238 39.1318L30.8936 39.3486L31.3994 39.457H31.9775L32.4834 39.3486L32.7725 39.3125L33.459 39.999H33.5312V40.0713L33.8203 40.3242L34.832 41.3359L35.1572 41.5527L35.3379 41.625H35.6631L35.916 41.5166L36.2051 41.2637L36.3496 40.9385V40.6494L36.2051 40.3242L35.6992 39.7461L35.5547 39.6016H35.4824L35.4102 39.457L34.3623 38.4092L34.29 38.3008H34.2178L34.1455 38.1562H34.0732L34.001 38.0117L34.0371 37.8672L34.1455 37.4697L34.1816 37.2529V36.7832L34.0732 36.2051L33.7842 35.627L33.5312 35.3018L33.2783 35.0488L32.7725 34.7236L32.5918 34.6514L32.5557 34.5791L32.5195 29.4121L32.4111 29.1592L32.1943 28.9062L32.0137 28.7979L31.8691 28.7617H31.4717Z" fill="#F7F7F7"/>
<path d="M31.5439 14.7422L32.9893 14.7783L34.2178 14.8867L35.5186 15.0674L36.9277 15.3564L38.1201 15.6816L39.3125 16.0791L40.3965 16.5127L41.2637 16.9102L41.8418 17.1992L42.6729 17.6328L43.6846 18.2471L44.4795 18.7891L45.166 19.2949L45.6719 19.6924L46.0693 20.0176L46.4307 20.3428L46.7197 20.5957L47.2979 21.1377L47.876 21.7158L48.1289 22.0049L48.5625 22.4746L48.8877 22.8721L49.3213 23.4141L49.8271 24.1006L50.2969 24.7871L50.7305 25.4736L51.0918 26.0879L51.3086 26.4492L51.5977 27.0273L52.0312 27.9307L52.4648 28.9785L52.79 29.8818L53.1514 31.0381L53.4404 32.1943L53.6934 33.5674L53.8379 34.6875L53.9102 35.5908L53.9463 36.4219V37.5059L53.874 38.915L53.6934 40.4326L53.4766 41.625L53.1152 43.0703L52.79 44.1182L52.4287 45.0938L52.0312 46.0332L51.7422 46.6836L51.3809 47.3701L50.9473 48.165L50.6221 48.707L49.9717 49.6826L49.502 50.333L49.1045 50.8389L48.7793 51.2363L48.3457 51.7422L47.9482 52.1758L47.6953 52.4648L47.2617 52.8984L46.9727 53.1514L46.6113 53.5127L46.2139 53.8379L45.8887 54.127L45.3828 54.5244L44.7686 54.9941L43.9375 55.5723L43.0703 56.1143L42.167 56.6201L41.5527 56.9453L40.541 57.415L39.5654 57.8125L38.3008 58.2461L36.9639 58.6074L35.9521 58.8242L34.8682 59.0049L33.6758 59.1494L32.6279 59.2217H30.6406L29.6289 59.1494L28.4365 59.0049L27.208 58.7881L25.9795 58.499L24.8955 58.1738L23.8477 57.8125L22.7998 57.3789L21.7881 56.9092L20.7764 56.3672L20.1621 56.0059L19.2588 55.4277L18.6084 54.958L18.1387 54.5967L17.6328 54.1992L17.127 53.7656L16.7656 53.4404L16.332 53.043L15.3926 52.1035V52.0312H15.3203L15.0674 51.7422L14.5977 51.2002L14.2002 50.6943L13.6943 50.0439L13.2969 49.4658L12.8271 48.7432L12.502 48.2012L12.0322 47.3701L11.4902 46.2861L11.0566 45.2744L10.6592 44.2266L10.334 43.1787L10.0811 42.2393L9.82812 41.0469L9.61133 39.6016L9.50293 38.4814L9.4668 37.7588V36.1328L9.53906 34.9766L9.71973 33.5312L9.97266 32.1943L10.2617 31.0381L10.5869 29.9902L10.876 29.1592L11.3096 28.1113L11.707 27.2441L12.2129 26.2686L12.7188 25.4014L13.1162 24.7871L13.4053 24.3535L13.8027 23.8115L14.1279 23.3779L14.5254 22.8721L14.8145 22.5107H14.8867L14.959 22.3662L15.4287 21.8604L15.6816 21.5713L16.5488 20.7041H16.6211V20.6318L17.0186 20.3066L17.4521 19.9092L18.4639 19.1143L19.0781 18.6807L19.6201 18.3193L20.3066 17.8857L21.3184 17.3076L22.3301 16.8018L23.3418 16.3682L24.2812 16.0068L25.4014 15.6455L26.4854 15.3564L27.4971 15.1396L28.5811 14.959L29.8818 14.8145L30.3516 14.7783L31.5439 14.7422ZM30.5684 18.9336L29.123 19.0781L28.0752 19.2588L27.0273 19.5117L25.9434 19.8369L24.8955 20.2344L23.9922 20.6318L23.125 21.0654L22.2578 21.5713L21.752 21.8965L21.0293 22.4023L20.7041 22.6553L20.1982 23.0527L19.8369 23.3779L19.5479 23.6309L19.3672 23.7754V23.8477L19.2227 23.9199L18.5 24.6426L18.2471 24.9316L17.9219 25.293L17.5967 25.6904L17.2354 26.1602L16.7656 26.8105L16.3682 27.4248L15.8984 28.2197L15.3926 29.1953L15.1396 29.7734L14.959 30.1709L14.5977 31.1104L14.3086 32.0498L14.0195 33.2061L13.8389 34.1816L13.7305 34.9043L13.6582 35.8438L13.6221 36.5664V37.4697L13.6943 38.6621L13.8389 39.8184L14.0918 41.1191L14.3809 42.167L14.7422 43.251L15.1758 44.2988L15.6816 45.3467L16.2236 46.3223L16.8018 47.1895L17.2715 47.8398L17.7412 48.418L18.0664 48.8154L18.9336 49.7549L19.1504 49.9717H19.2227L19.2588 50.0801L19.5479 50.333L19.9814 50.7305L20.3789 51.0557L20.8848 51.4531L21.5352 51.9229L22.3301 52.4287L23.0889 52.8623L23.9199 53.2959L25.0039 53.7656L25.6543 54.0186L26.8105 54.3799L27.6777 54.5967L29.0508 54.8496L29.9902 54.958L31.1465 55.0303H32.2666L33.3867 54.958L34.543 54.8135L35.6631 54.5967L36.5303 54.3799L37.542 54.0547L38.2646 53.8018L39.0957 53.4404L39.999 53.0068L40.7939 52.5732L41.5527 52.1035L42.2393 51.6338L42.998 51.0557L43.4678 50.6582L43.8652 50.333L44.2266 49.9717L44.5156 49.7188L45.0576 49.1406L45.4189 48.7432L45.7441 48.3457L46.25 47.6953L46.7559 46.9727L47.2979 46.1055L47.8398 45.0938L48.3818 43.9375L48.7793 42.8535L49.1045 41.8057L49.3936 40.6133L49.5742 39.4932L49.6826 38.5898L49.7188 38.084L49.7549 36.8916L49.7188 35.8799L49.6104 34.6875L49.3936 33.3506L49.1045 32.1582L48.7793 31.1104L48.3457 29.9541L47.8398 28.8701L47.4785 28.1836L47.1172 27.5693L46.4668 26.5938L46.1777 26.1963L45.8164 25.7266L45.4912 25.3291L45.0576 24.8594L44.8047 24.5703L44.6963 24.4258H44.624L44.5518 24.2812L44.0098 23.7754L43.5762 23.3779L43.0703 22.9443L42.6006 22.583L41.9502 22.1133L41.4082 21.752L40.6855 21.3184L40.0352 20.957L39.0957 20.4873L37.9395 20.0176L36.6387 19.584L35.4463 19.2949L34.4707 19.1143L33.6396 19.0059L32.7725 18.9336H30.5684Z" fill="#FF4800"/>
<path d="M31.3633 0H34.3984V0.0361328L36.3496 0.25293L38.084 0.505859L39.7461 0.831055L41.625 1.30078L42.9258 1.69824L44.624 2.27637L45.708 2.70996L46.7197 3.14355L47.3701 3.43262L49.1045 4.2998L49.9355 4.76953L50.8027 5.27539L51.6699 5.81738L52.3203 6.25098L52.8984 6.64844L53.5488 7.11816L54.2354 7.62402L54.8496 8.12988L55.2109 8.41895L55.6084 8.74414L56.1504 9.21387L56.584 9.61133L56.873 9.86426L57.1621 10.1533L57.4512 10.4062L58.4629 11.418V11.4902H58.5352L58.7881 11.7793L59.2939 12.3213L59.6191 12.7188L59.9805 13.1162L60.3057 13.5137L60.7754 14.0918L61.2451 14.7061L61.751 15.3926L62.2568 16.1152L62.6904 16.7656L63.2686 17.6689V17.8135L62.3291 18.3555L61.4619 18.8613L60.7031 19.2949L59.8359 19.8008L57.0176 21.4268L56.2588 21.8604L55.3193 22.4023L53.8379 23.2695L53.6934 23.2334L52.9707 22.1494L52.6094 21.6436L52.2842 21.21L51.8506 20.668L51.5254 20.2705L51.0557 19.7285L50.7305 19.3672L50.6582 19.2227H50.5859L50.333 18.9336L49.502 18.1025L49.4297 18.0664V17.9941L49.2852 17.9219L49.0322 17.6689L48.6348 17.3438L48.2734 17.0186L47.7676 16.6211L47.1172 16.1152L46.5029 15.6816L45.6357 15.1035L44.9854 14.7061L43.7207 13.9834L43.1426 13.6943L42.1309 13.2246L40.7939 12.6826L39.8906 12.3574L38.6982 11.9961L37.3975 11.6709L36.3496 11.4541L35.1934 11.2734L33.8203 11.1289L31.5439 11.0205L31.2188 10.9121L30.9297 10.623L30.8213 10.4062L30.7852 10.1533V0.758789L30.8936 0.433594L31.1465 0.144531L31.3633 0Z" fill="#FF4800"/>
<path d="M12.5381 55.0664H12.8271L13.1885 55.2109L13.6221 55.6084L14.0195 56.0059L14.3086 56.2588L14.8506 56.7285L15.3564 57.1621L16.2959 57.8848L16.9102 58.3184L17.5605 58.752L18.2471 59.1855L19.1865 59.7275L20.1621 60.2334L20.8486 60.5586L21.752 60.9561L22.583 61.2812L23.5947 61.6426L25.1123 62.0762L26.1963 62.3291L27.5693 62.582L28.9424 62.7627L30.749 62.9072L30.8574 62.9795V69.2666L30.8213 74H30.4238L28.9785 73.8916L26.9189 73.6748L25.6182 73.4941L23.7393 73.1328L22.0771 72.7354L20.3428 72.2295L18.5723 71.6152L17.4883 71.1816L16.585 70.7842L15.3203 70.2061L14.4893 69.7725L13.7305 69.375L12.8633 68.8691L12.1406 68.4355L11.418 67.9658L10.7676 67.5322L10.1172 67.0625L9.61133 66.7012L9.1416 66.3398L8.49121 65.834L7.55176 65.0391L7.1543 64.6777L6.75684 64.3525L6.32324 63.9189L6.03418 63.666L5.41992 63.0518L5.31152 62.8711L5.23926 62.4736L5.34766 62.1123L5.60059 61.7871L12.0684 55.3193L12.4297 55.1025L12.5381 55.0664Z" fill="#FF4800"/>
<path d="M57.7041 37.7949L68.6523 37.8311L68.6885 37.8672L68.6162 39.5654L68.4355 41.4805L68.1826 43.251L67.8574 44.9131L67.46 46.5752L66.9902 48.165L66.4121 49.8633L66.0146 50.875L65.6172 51.8145L65.0752 53.0068L64.4248 54.3076L63.4854 55.9697L62.6182 57.3428L62.1123 58.0654L61.8232 58.499L61.2451 59.2578L60.9199 59.6914L60.5225 60.1973L60.0889 60.7031L59.6914 61.209H59.6191L59.5469 61.3535L58.9688 61.9678L58.5713 62.4014L58.4268 62.4736L58.2461 62.2568L58.1738 62.2207V62.1484L58.0293 62.0762L56.8369 60.8838L56.6924 60.7754V60.7031L56.5479 60.6309L55.9336 60.0166L55.6445 59.7637L54.5967 58.7158L54.3076 58.4629L52.9707 57.126L52.6816 56.873L51.4531 55.6445L51.1641 55.3916L50.7305 54.958L50.6582 54.9219V54.8496H50.5859L50.6221 54.7051L50.9473 54.3438L51.0918 54.1631H51.1641L51.2363 54.0186L51.5615 53.6572L52.3564 52.6455L52.6816 52.2119L53.1875 51.4893L53.5488 50.9473L53.9824 50.2246L54.4883 49.3574L54.8496 48.6709L55.2471 47.8398L55.6445 46.9365L56.1143 45.708L56.4756 44.624L56.8369 43.3232L57.0537 42.3838L57.2705 41.2637L57.4512 39.9629L57.5596 38.7344L57.6318 37.8311L57.7041 37.7949Z" fill="#FF4800"/>
<path d="M49.3213 56.0059L49.4658 56.042L50.4414 57.0176L50.7305 57.2705L52.1035 58.6436L52.1758 58.6797V58.752L52.3203 58.8242L53.8018 60.3057L54.0908 60.5586L55.1387 61.6064L55.3555 61.7871L56.9453 63.377L57.1982 63.5938L57.2705 63.7383L56.8369 64.1719L56.5479 64.4248L56.1143 64.8223L55.7168 65.1475L55.4277 65.4004L55.0303 65.7256L54.4883 66.1592L53.332 67.0264L52.7539 67.4238L51.6699 68.1465L50.7305 68.7246L49.8633 69.2305L48.9961 69.7002L48.0205 70.2061L46.7197 70.8203L45.4189 71.3623L44.1543 71.832L42.7812 72.3018L41.2637 72.7354L39.7822 73.0967L38.1562 73.4219L36.4941 73.6748L34.8682 73.8555L33.2783 74H32.5557L32.5195 73.7832V62.9795L32.5918 62.9072L34.0371 62.7988L35.3018 62.6543L36.6387 62.4375L37.6504 62.2207L38.7705 61.9316L40.0352 61.5342L40.7578 61.2812L41.7695 60.8838L42.9619 60.3418L43.9014 59.8721L44.5518 59.5107L45.3467 59.041L46.4307 58.3184L47.0449 57.8848L47.5146 57.5234L48.0205 57.126L48.4902 56.7285L48.7793 56.4756L49.1406 56.1504H49.2129V56.0781L49.3213 56.0059Z" fill="#FF4800"/>
<path d="M64.0996 19.2227L64.208 19.2588L64.9307 20.668L65.4727 21.7881L66.0869 23.2334L66.6289 24.6787L67.1348 26.2324L67.4961 27.5332L67.7852 28.6895L68.0742 30.0986L68.3271 31.6523L68.5078 33.0977L68.6162 34.3984L68.6885 35.8076V36.0605L68.5801 36.1328H57.668L57.6318 36.0967L57.4873 34.3262L57.3066 32.8809L57.0898 31.7246L56.8369 30.6406L56.6201 29.8096L56.1865 28.4365L55.6807 27.0996L55.1387 25.8711L54.7051 25.0039L54.5967 24.751L54.9219 24.5342L55.8613 23.9922L56.7285 23.4863L57.4873 23.0527L58.3545 22.5469L58.8604 22.2578L59.7275 21.752L60.7393 21.1738L61.6064 20.668L62.4375 20.1982L63.0518 19.8369L63.9912 19.2949L64.0996 19.2227Z" fill="#FF4800"/>
<path d="M31.6162 36.1328L31.9414 36.1689L32.2305 36.3496L32.4111 36.5664L32.4834 36.7471V37.0723L32.3389 37.3613L32.1582 37.542L31.8691 37.6865H31.5078L31.2188 37.542L31.0381 37.3252L30.9297 37.0723V36.7471L31.1104 36.3857L31.3633 36.2051L31.6162 36.1328Z" fill="#F7F7F7"/>
<path d="M29.7012 73.9639H30.0264V74H29.7012V73.9639Z" fill="#F0885F"/>
<path fill-rule="evenodd" clip-rule="evenodd" d="M30.5684 18.9336L29.123 19.0781L28.0752 19.2588L27.0273 19.5117L25.9434 19.8369L24.8955 20.2344L23.9922 20.6318L23.125 21.0654L22.2578 21.5713L21.752 21.8965L21.0293 22.4023L20.7041 22.6553L20.1982 23.0527L19.8369 23.3779L19.5479 23.6309L19.3672 23.7754V23.8477L19.2227 23.9199L18.5 24.6426L18.2471 24.9316L17.9219 25.293L17.5967 25.6904L17.2354 26.1602L16.7656 26.8105L16.3682 27.4248L15.8984 28.2197L15.3926 29.1953L15.1396 29.7734L14.959 30.1709L14.5977 31.1104L14.3086 32.0498L14.0195 33.2061L13.8389 34.1816L13.7305 34.9043L13.6582 35.8438L13.6221 36.5664V37.4697L13.6943 38.6621L13.8389 39.8184L14.0918 41.1191L14.3809 42.167L14.7422 43.251L15.1758 44.2988L15.6816 45.3467L16.2236 46.3223L16.8018 47.1895L17.2715 47.8398L17.7412 48.418L18.0664 48.8154L18.9336 49.7549L19.1504 49.9717H19.2227L19.2588 50.0801L19.5479 50.333L19.9814 50.7305L20.3789 51.0557L20.8848 51.4531L21.5352 51.9229L22.3301 52.4287L23.0889 52.8623L23.9199 53.2959L25.0039 53.7656L25.6543 54.0186L26.8105 54.3799L27.6777 54.5967L29.0508 54.8496L29.9902 54.958L31.1465 55.0303H32.2666L33.3867 54.958L34.543 54.8135L35.6631 54.5967L36.5303 54.3799L37.542 54.0547L38.2646 53.8018L39.0957 53.4404L39.999 53.0068L40.7939 52.5732L41.5527 52.1035L42.2393 51.6338L42.998 51.0557L43.4678 50.6582L43.8652 50.333L44.2266 49.9717L44.5156 49.7188L45.0576 49.1406L45.4189 48.7432L45.7441 48.3457L46.25 47.6953L46.7559 46.9727L47.2979 46.1055L47.8398 45.0938L48.3818 43.9375L48.7793 42.8535L49.1045 41.8057L49.3936 40.6133L49.5742 39.4932L49.6826 38.5898L49.7188 38.084L49.7549 36.8916L49.7188 35.8799L49.6104 34.6875L49.3936 33.3506L49.1045 32.1582L48.7793 31.1104L48.3457 29.9541L47.8398 28.8701L47.4785 28.1836L47.1172 27.5693L46.4668 26.5938L46.1777 26.1963L45.8164 25.7266L45.4912 25.3291L45.0576 24.8594L44.8047 24.5703L44.6963 24.4258H44.624L44.5518 24.2812L44.0098 23.7754L43.5762 23.3779L43.0703 22.9443L42.6006 22.583L41.9502 22.1133L41.4082 21.752L40.6855 21.3184L40.0352 20.957L39.0957 20.4873L37.9395 20.0176L36.6387 19.584L35.4463 19.2949L34.4707 19.1143L33.6396 19.0059L32.7725 18.9336H30.5684ZM34.001 20.7764L32.6279 20.6318L32.5195 20.7041L32.4834 23.7031L32.4111 23.8838L32.1943 24.1367L31.9053 24.2812H31.4717L31.1826 24.1367L31.002 23.9561L30.8936 23.7031L30.8574 23.2695V20.7041L30.8213 20.668H30.3516L29.376 20.7764L28.5088 20.9209L27.5693 21.1377L26.4492 21.4629L25.4014 21.8604L24.6787 22.1855L23.8477 22.6191L23.2695 22.9443L22.583 23.3779L22.2217 23.6309L21.5352 24.1367L21.1016 24.498L20.8125 24.7148L20.7764 24.8955L22.7637 26.8828L22.9443 27.2441V27.6416L22.8721 27.8223L22.6914 28.0391L22.4746 28.1836L22.1133 28.2559L21.752 28.1475L21.3545 27.8223L21.1016 27.5332L20.8848 27.3525L20.668 27.0996L20.4512 26.9189L19.9814 26.4492L19.6562 26.0879L19.5117 26.0518L19.4033 26.1602L18.9336 26.7383L18.5723 27.208L18.2832 27.6055L17.9941 28.0391L17.4521 28.9062L16.9102 29.9541L16.4404 31.0381L16.0791 32.0859L15.8262 32.9893L15.6094 33.9648L15.4287 35.1572L15.3564 36.0967L15.3926 36.1328L18.3916 36.1689L18.5723 36.2412L18.8252 36.458L18.9697 36.7832V37.1445L18.9336 37.2891L18.7891 37.542L18.5361 37.7227L18.1387 37.7949L15.3564 37.8311V38.084L15.4648 39.0596L15.6816 40.3604L15.9346 41.4082L16.2959 42.5283L16.6934 43.54L17.1992 44.5879L17.6328 45.3467L18.1025 46.1055L18.6084 46.792L19.0781 47.4062L19.4756 47.8398L19.6201 47.9121L19.6562 47.8398L20.415 47.0811L20.7041 46.8281L21.6436 45.8887L21.9326 45.7441H22.3301L22.6553 45.8887L22.8721 46.1416L22.9805 46.5029L22.9082 46.9004L22.6191 47.2617L22.3301 47.5146L22.2578 47.6592H22.1855L21.1738 48.6709L20.8125 48.9961L20.7764 49.1406L21.1377 49.4658L21.5352 49.791L22.1494 50.2607L22.9443 50.8027L23.9199 51.3809L24.7871 51.8145L25.6904 52.2119L26.8105 52.6094L27.9668 52.9346L29.0508 53.1514L30.1348 53.2959L30.8213 53.332L30.8574 53.2959V52.2842L30.8936 50.2607L30.9658 50.0801L31.2188 49.791L31.5078 49.6826H31.8691L32.1221 49.791L32.3027 49.9355L32.4834 50.2969L32.5195 53.2959L32.5557 53.332H32.7725L33.4951 53.2598L34.4707 53.1152L35.6992 52.8623L36.9277 52.501L38.1562 52.0312L38.8428 51.7061L39.6738 51.2725L40.4688 50.8027L41.1191 50.3691L41.7695 49.8994L42.5645 49.249L42.6006 49.1045L40.7578 47.2617L40.541 46.9727L40.4326 46.6113L40.5049 46.1777L40.6855 45.9248L41.0469 45.7441H41.4443L41.8057 45.9248L43.6484 47.7676L43.8652 47.9121L44.2627 47.4424L44.5518 47.0811L44.8047 46.7559L45.2021 46.2139L45.4912 45.7803L45.7803 45.3105L45.9971 44.9131L46.3584 44.2627L46.7559 43.3955L47.0811 42.6006L47.334 41.8418L47.623 40.8301L47.8398 39.7822L47.9844 38.7705L48.0566 37.8672L48.0205 37.8311L45.2383 37.7949L44.9854 37.7588L44.8047 37.6865L44.5879 37.5059L44.4072 37.1445V36.7832L44.5156 36.5303L44.6963 36.3135L44.9854 36.1689L47.9844 36.1328L48.0566 36.0967V35.916L47.9482 34.9043L47.7676 33.8203L47.5146 32.7363L47.2256 31.7969L46.8643 30.8213L46.4668 29.918L46.1777 29.376L45.8164 28.7256L45.4912 28.1836L45.1299 27.6416L44.7686 27.1357L44.3711 26.6299L43.9375 26.124L43.793 26.0879L43.6484 26.2686L43.3594 26.5215L42.2393 27.6416L41.8057 28.0391L41.5889 28.1836L41.2275 28.2559L40.8662 28.1475L40.6133 27.9307L40.4688 27.6416V27.2803L40.5049 27.1357L40.6494 26.8828L41.7334 25.7988L41.9863 25.5098L42.5283 24.9678L42.6006 24.7871L42.3115 24.5342L41.9141 24.209L41.4082 23.8115L40.9023 23.4502L40.0713 22.9082L39.2764 22.4746L38.2285 21.9688L37.1445 21.5352L36.0967 21.21L35.0127 20.957L34.001 20.7764Z" fill="#F0885F"/>
<path fill-rule="evenodd" clip-rule="evenodd" d="M31.4717 28.7617L31.1104 28.9424L30.8936 29.2676L30.8574 29.376L30.8213 32.7002V34.6514L30.6045 34.7236L30.207 34.9766L29.8096 35.3379L29.4844 35.8438L29.3037 36.3496L29.2314 36.7832V37.1807L29.3398 37.7588L29.5205 38.1562L29.7373 38.5176L30.0625 38.8789L30.4238 39.1318L30.8936 39.3486L31.3994 39.457H31.9775L32.4834 39.3486L32.7725 39.3125L33.459 39.999H33.5312V40.0713L33.8203 40.3242L34.832 41.3359L35.1572 41.5527L35.3379 41.625H35.6631L35.916 41.5166L36.2051 41.2637L36.3496 40.9385V40.6494L36.2051 40.3242L35.6992 39.7461L35.5547 39.6016H35.4824L35.4102 39.457L34.3623 38.4092L34.29 38.3008H34.2178L34.1455 38.1562H34.0732L34.001 38.0117L34.0371 37.8672L34.1455 37.4697L34.1816 37.2529V36.7832L34.0732 36.2051L33.7842 35.627L33.5312 35.3018L33.2783 35.0488L32.7725 34.7236L32.5918 34.6514L32.5557 34.5791L32.5195 29.4121L32.4111 29.1592L32.1943 28.9062L32.0137 28.7979L31.8691 28.7617H31.4717ZM31.9414 36.1689L31.6162 36.1328L31.3633 36.2051L31.1104 36.3857L30.9297 36.7471V37.0723L31.0381 37.3252L31.2188 37.542L31.5078 37.6865H31.8691L32.1582 37.542L32.3389 37.3613L32.4834 37.0723V36.7471L32.4111 36.5664L32.2305 36.3496L31.9414 36.1689Z" fill="#FF4800"/>
</g>
<defs>
<clipPath id="clip0_9_2724">
<rect width="74" height="74" fill="white"/>
</clipPath>
</defs>
</svg>
