<svg width="74" height="74" viewBox="0 0 74 74" fill="none" xmlns="http://www.w3.org/2000/svg">
<path d="M23.461 14.1741H50.8638L51.0472 14.2429L51.2536 14.3805L51.4141 14.6098L51.46 14.7474V18.7145L51.6664 18.7374L52.3018 18.8698L56.0691 19.6546L56.9817 19.8467L57.8119 20.0215L59.5318 20.3884L59.7611 20.4802L59.8987 20.5719L60.0592 20.7553L60.1509 20.9617L60.1738 21.191L59.9445 22.3147L59.5776 24.0574L59.2795 25.5021L58.3852 29.7444L58.133 30.9597L57.1928 35.4313L56.8947 36.876L56.0004 41.1182L55.7022 42.5629L54.5328 48.1123L54.2346 49.5569L53.3403 53.7992L53.0422 55.2439L52.125 59.6008L51.9645 59.9218L51.781 60.0823L51.5517 60.1741H51.2536L48.4101 59.5779L47.0113 59.2798L45.5667 58.9817L37.3802 57.2618L37.0821 57.2389L23.0941 60.1511L22.8877 60.1741L22.6354 60.1053L22.4291 59.9677L22.2685 59.7384L22.1998 59.532L21.8329 57.8122L21.5347 56.3675L21.3477 55.4807L20.9156 53.4323L20.6175 51.9876L20.3663 50.8053L20.2277 50.1531L19.9525 48.8231L19.4709 46.53L19.0352 44.4662L18.7601 43.1362L17.2925 36.1422L16.9714 34.6287L16.6733 33.184L16.2835 31.3266L15.779 28.9418L15.4809 27.4971L14.1738 21.2827V20.9617L14.2656 20.7324L14.4261 20.5489L14.6325 20.4343L14.9764 20.3426L16.6045 19.9986L21.1908 19.0355L22.7501 18.7145L22.8418 18.6915L22.8648 14.7932L22.9565 14.541L23.1629 14.3117L23.3692 14.197L23.461 14.1741ZM33.8259 15.6417L24.3553 15.6646V53.2947H49.9924V15.6646L46.5068 15.6417H33.8259ZM51.4829 20.2279L51.46 54.0744L51.4141 54.3037L51.2765 54.533L51.116 54.6706L50.9555 54.7394L50.8408 54.7623L34.0552 54.7852H33.6654L33.0691 54.8082L33.1609 54.854L36.3712 55.519L39.9485 56.2758L41.5078 56.5968L47.1948 57.7892L49.5796 58.2937L50.8179 58.546L50.8638 58.3854L51.1848 56.872L51.5058 55.3127L52.0562 52.6985L52.3772 51.185L52.6983 49.6257L52.9046 48.6626L53.455 46.0255L53.776 44.5121L55.6564 35.523L55.9545 34.1242L56.2755 32.5649L56.6883 30.6157L56.9635 29.3087L57.2616 27.864L57.9724 24.4931L58.2705 23.0485L58.5457 21.7414L58.4999 21.6726L56.9405 21.3515L53.5467 20.6407L51.8039 20.2738L51.5746 20.2279H51.4829ZM22.773 20.2279L17.0632 21.4203L15.8478 21.6726L15.8019 21.6955L15.8478 21.9936L17.109 28.0245L17.5218 29.9737L17.8199 31.4183L19.1958 37.9767L19.8149 40.9119L20.113 42.3565L21.0073 46.5988L21.3054 48.0435L22.1998 52.2857L22.4979 53.7304L23.0482 56.3446L23.461 58.3166L23.5068 58.546L23.6903 58.523L25.0891 58.2249L26.5337 57.9268L28.8039 57.4453L30.2486 57.1472L32.5188 56.6656L33.3902 56.4822L33.459 56.4363L32.794 56.2758L31.8079 56.0694L29.9734 55.6796L28.5288 55.3815L26.9236 55.0375L25.777 54.8082L25.5477 54.7852L23.461 54.7623L23.2317 54.6706L23.0482 54.5101L22.9335 54.3266L22.8877 54.1432L22.8648 20.2279H22.773Z" fill="black"/>
<path d="M37.0821 24.9976L37.6325 25.0205L38.1369 25.0893L38.6644 25.2269L39.2376 25.4562L39.6733 25.6855L40.0402 25.9378L40.2695 26.1212L40.4989 26.3276L40.6594 26.4652L40.8199 26.6486L41.0492 26.9238L41.3244 27.3366L41.5308 27.7035L41.7601 28.2309L41.9206 28.8042L42.0123 29.3545L42.0352 29.9278L42.0123 30.3864L41.9435 30.8221L42.1499 30.8451L42.6315 31.0056L43.1359 31.2349L43.5258 31.4642L43.8927 31.7394L44.2137 32.0146L44.5347 32.3356L44.787 32.6566L44.9934 32.9547L45.1997 33.3216L45.4061 33.7573L45.5667 34.2389L45.6584 34.6287L45.7272 35.1791V35.867L45.6813 36.3027L45.5667 36.8072L45.452 37.1741L45.2456 37.6786L44.9934 38.1143L44.7641 38.4353L44.5806 38.6646L44.3742 38.8939L44.0761 39.192L43.6863 39.4901L43.2735 39.7424L42.8378 39.9717L42.2646 40.1781L41.783 40.2927L41.3244 40.3615L40.774 40.3844H40.4759L40.6594 40.5679L40.8199 40.7513L41.0721 41.0036L41.2327 41.187L41.7142 41.6686L41.8977 41.8291L42.1728 42.1043L42.4251 42.3107L42.8149 42.6776L42.9525 42.861L43.0213 43.0215L43.0442 43.1362V43.2967L42.9525 43.549L42.8149 43.7324L42.6315 43.87L42.448 43.9388L42.0352 43.9617H32.1978L31.8997 43.9388L31.6933 43.8471L31.5098 43.6865L31.3952 43.5031L31.3264 43.2738L31.3493 43.0215L31.441 42.8152L31.6015 42.6317L31.7621 42.4712L32.0143 42.2648L32.4041 41.8979L32.5188 41.8062L33.2526 41.0724L33.4131 40.8889L33.5966 40.7055L33.7571 40.522L33.8947 40.3615L33.5048 40.3844L33.0233 40.3615L32.45 40.2698L31.9455 40.1322L31.4869 39.9487L30.9595 39.6736L30.6843 39.4901L30.3633 39.2379L30.0652 38.9627L29.8817 38.7793L29.6753 38.527L29.4919 38.2977L29.2396 37.8849L29.0562 37.541L28.8498 37.0136L28.7122 36.4632L28.6434 36.0275L28.6205 35.7294V35.3396L28.6664 34.858L28.781 34.2847L28.9415 33.8032L29.102 33.4363L29.3084 33.0465L29.4919 32.7713L29.6983 32.4961L29.9046 32.2668L30.0652 32.0833L30.3633 31.8082L30.7302 31.533L31.1429 31.2808L31.5098 31.0973L31.8538 30.9597L32.2895 30.8221L32.4271 30.7992L32.3812 30.6387L32.3353 30.2259V29.5151L32.4041 28.9876L32.5188 28.5061L32.6793 28.0475L32.8398 27.7035L33.0462 27.3137L33.2755 26.9926L33.5048 26.6945L33.78 26.3964L33.8717 26.3047H33.9176V26.2588L34.1698 26.0524L34.5138 25.8002L34.8578 25.5938L35.2247 25.4104L35.5686 25.2728L36.0273 25.1352L36.3712 25.0664L36.7152 25.0205L37.0821 24.9976ZM36.7611 26.5111L36.1878 26.6257L35.775 26.7862L35.3852 26.9926L35.0183 27.2678L34.789 27.4742L34.6285 27.6347L34.4221 27.9099L34.1928 28.2768L34.0552 28.5749L33.8947 29.0564L33.8259 29.4692L33.8029 29.9507L33.8717 30.547L34.0093 31.0056L34.124 31.3954L34.101 31.6247L33.9635 31.8999L33.78 32.0604L33.5966 32.1292L33.3214 32.1751L32.8857 32.2209L32.4271 32.3356L32.129 32.4502L31.6933 32.6796L31.3722 32.9089L31.0971 33.1611L30.9365 33.3216L30.6614 33.6885L30.4779 34.0096L30.3174 34.3535L30.2027 34.7204L30.111 35.2708V35.8211L30.2027 36.3485L30.3633 36.8301L30.6155 37.3117L30.8448 37.6327L31.12 37.9308L31.3722 38.1601L31.7162 38.3894L31.9455 38.527L32.3812 38.7105L32.7022 38.8022L33.1379 38.871H33.78L34.0781 38.8251L34.5138 38.7105L34.9495 38.527L35.2705 38.3436L35.5457 38.1372L35.798 37.9308V37.8849H35.8438V37.8391H35.8897L36.0961 37.5868L36.3024 37.2887L36.44 37.0594L36.5776 36.8072L36.6923 36.6925L36.8069 36.6008L36.9904 36.532H37.3114L37.5866 36.6467L37.7471 36.8072L37.9306 37.1282L38.1369 37.4722L38.3433 37.7244L38.4121 37.8161H38.458L38.5038 37.9079L38.7561 38.1372L39.0542 38.3436L39.3752 38.527L39.788 38.7105L40.2237 38.8251L40.5447 38.871H41.1868L41.6225 38.8022L41.9894 38.6875L42.3334 38.5499L42.7002 38.3436L42.9754 38.1372L43.2047 37.9308L43.3194 37.8161L43.5487 37.5639L43.778 37.2199L43.9615 36.853L44.122 36.3715L44.1908 36.0275L44.2137 35.8441V35.2249L44.1449 34.7892L44.0073 34.3306L43.778 33.849L43.5487 33.5051L43.2506 33.1611L42.9984 32.9318L42.6773 32.7025L42.2646 32.4732L41.7601 32.2897L41.3014 32.198L40.797 32.1521L40.5447 32.0604L40.3842 31.9228L40.2695 31.7394L40.2237 31.6018V31.3037L40.453 30.547L40.4989 30.2488L40.5218 29.8132L40.4989 29.4463L40.4071 28.9876L40.2466 28.5061L40.0173 28.0704L39.788 27.7493L39.5357 27.4742L39.3523 27.2907L39.0083 27.0385L38.6414 26.8321L38.3204 26.6945L37.9535 26.5799L37.5637 26.5111H36.7611ZM37.1738 38.7105L37.0592 38.8251L36.3712 39.7424L36.1649 39.9946L35.8438 40.3844L35.5916 40.7055L35.3393 40.9807V41.0265H35.2935L35.0871 41.2788L34.9724 41.3934V41.4393H34.9266L34.7661 41.6227L34.445 41.9667L33.9635 42.4482V42.4712H40.3613L40.2237 42.3107L39.9714 42.0355L39.6504 41.7145L39.4899 41.531L39.2606 41.2788L39.1 41.0953L38.8937 40.866L38.6873 40.6138L38.435 40.3157L38.1828 39.9946L37.8847 39.6277L37.5637 39.192L37.1968 38.7105H37.1738Z" fill="black"/>
<path d="M37.1738 38.7105L37.0592 38.8251L36.3712 39.7424L36.1649 39.9946L35.8438 40.3844L35.5916 40.7055L35.3393 40.9807V41.0265H35.2935L35.0871 41.2788L34.9724 41.3934V41.4393H34.9266L34.7661 41.6227L34.445 41.9667L33.9635 42.4482V42.4712H40.3613L40.2237 42.3107L39.9714 42.0355L39.6504 41.7145L39.4899 41.531L39.2606 41.2788L39.1 41.0953L38.8937 40.866L38.6873 40.6138L38.435 40.3157L38.1828 39.9946L37.8847 39.6277L37.5637 39.192L37.1968 38.7105H37.1738Z" fill="#F0885F"/>
<path d="M36.7611 26.5111L36.1878 26.6257L35.775 26.7862L35.3852 26.9926L35.0183 27.2678L34.789 27.4742L34.6285 27.6347L34.4221 27.9099L34.1928 28.2768L34.0552 28.5749L33.8947 29.0564L33.8259 29.4692L33.8029 29.9507L33.8717 30.547L34.0093 31.0056L34.124 31.3954L34.101 31.6247L33.9635 31.8999L33.78 32.0604L33.5966 32.1292L33.3214 32.1751L32.8857 32.2209L32.4271 32.3356L32.129 32.4502L31.6933 32.6796L31.3722 32.9089L31.0971 33.1611L30.9365 33.3216L30.6614 33.6885L30.4779 34.0096L30.3174 34.3535L30.2027 34.7204L30.111 35.2708V35.8211L30.2027 36.3485L30.3633 36.8301L30.6155 37.3117L30.8448 37.6327L31.12 37.9308L31.3722 38.1601L31.7162 38.3894L31.9455 38.527L32.3812 38.7105L32.7022 38.8022L33.1379 38.871H33.78L34.0781 38.8251L34.5138 38.7105L34.9495 38.527L35.2705 38.3436L35.5457 38.1372L35.798 37.9308V37.8849H35.8438V37.8391H35.8897L36.0961 37.5868L36.3024 37.2887L36.44 37.0594L36.5776 36.8072L36.6923 36.6925L36.8069 36.6008L36.9904 36.532H37.3114L37.5866 36.6467L37.7471 36.8072L37.9306 37.1282L38.1369 37.4722L38.3433 37.7244L38.4121 37.8161H38.458L38.5038 37.9079L38.7561 38.1372L39.0542 38.3436L39.3752 38.527L39.788 38.7105L40.2237 38.8251L40.5447 38.871H41.1868L41.6225 38.8022L41.9894 38.6875L42.3334 38.5499L42.7002 38.3436L42.9754 38.1372L43.2047 37.9308L43.3194 37.8161L43.5487 37.5639L43.778 37.2199L43.9615 36.853L44.122 36.3715L44.1908 36.0275L44.2137 35.8441V35.2249L44.1449 34.7892L44.0073 34.3306L43.778 33.849L43.5487 33.5051L43.2506 33.1611L42.9984 32.9318L42.6773 32.7025L42.2646 32.4732L41.7601 32.2897L41.3014 32.198L40.797 32.1521L40.5447 32.0604L40.3842 31.9228L40.2695 31.7394L40.2237 31.6018V31.3037L40.453 30.547L40.4989 30.2488L40.5218 29.8132L40.4989 29.4463L40.4071 28.9876L40.2466 28.5061L40.0173 28.0704L39.788 27.7493L39.5357 27.4742L39.3523 27.2907L39.0083 27.0385L38.6414 26.8321L38.3204 26.6945L37.9535 26.5799L37.5637 26.5111H36.7611Z" fill="#F0885F"/>
<path d="M46.117 46.5988H46.438L46.6903 46.6905L46.8279 46.8052L46.9884 47.0574L47.1718 47.4931L47.5158 48.3416L47.791 49.0066L48.4789 50.7035L48.6165 51.0933V51.3456L48.4789 51.5519L48.3413 51.6666L48.2037 51.7125H48.0203L47.8598 51.6437L47.7222 51.4831L47.5387 51.1162L47.2865 50.4742H45.2915L45.131 50.9557L44.9246 51.4373L44.8329 51.5749L44.7411 51.6666L44.6035 51.7125H44.4201L44.2366 51.6437L44.0761 51.4831L44.0073 51.3226V51.1621L44.1678 50.6806L45.1539 48.1811L45.4291 47.4702L45.6354 46.9886L45.773 46.8052L45.9335 46.6676L46.117 46.5988ZM46.2775 47.6995L45.9794 48.5021L45.7501 49.1671L45.5667 49.6716H47.0113L46.8279 49.1212L46.5756 48.4333L46.3004 47.6995H46.2775Z" fill="black"/>
<path d="M27.9096 17.2469H28.0931L28.2995 17.2927L28.4829 17.4074L28.6434 17.5908L28.8039 17.9119L29.0562 18.5539L29.4231 19.4482L29.8817 20.5719L30.2027 21.3515L30.3403 21.7872V22.0165L30.2027 22.2229L30.0652 22.3376L29.9276 22.3834H29.7441L29.5607 22.2917L29.4231 22.1312L29.2396 21.7414L29.0332 21.1681L29.0103 21.1222H27.0382L26.8319 21.6955L26.7172 21.9936L26.5567 22.2459L26.442 22.3376L26.2127 22.3834L25.9605 22.2917L25.7999 22.1312L25.7312 21.9478L25.7541 21.7414L25.8917 21.3286L26.1439 20.7095L26.5108 19.7693L26.8089 19.0126L27.2905 17.7972L27.451 17.4991L27.6344 17.3386L27.795 17.2698L27.9096 17.2469ZM28.0013 18.3705L27.8867 18.6457L27.3822 20.0674L27.2905 20.2967V20.3426H28.7122L28.6664 20.1362L28.1848 18.8062L28.0243 18.3705H28.0013Z" fill="black"/>
<path fill-rule="evenodd" clip-rule="evenodd" d="M33.8259 15.6417L24.3553 15.6646V53.2947H49.9924V15.6646L46.5068 15.6417H33.8259ZM37.6325 25.0205L37.0821 24.9976L36.7152 25.0205L36.3712 25.0664L36.0273 25.1352L35.5686 25.2728L35.2247 25.4104L34.8578 25.5938L34.5138 25.8002L34.1698 26.0524L33.9176 26.2588V26.3047H33.8717L33.78 26.3964L33.5048 26.6945L33.2755 26.9926L33.0462 27.3137L32.8398 27.7035L32.6793 28.0475L32.5188 28.5061L32.4041 28.9876L32.3353 29.5151V30.2259L32.3812 30.6387L32.4271 30.7992L32.2895 30.8221L31.8538 30.9597L31.5098 31.0973L31.1429 31.2808L30.7302 31.533L30.3633 31.8082L30.0652 32.0833L29.9046 32.2668L29.6983 32.4961L29.4919 32.7713L29.3084 33.0465L29.102 33.4363L28.9415 33.8032L28.781 34.2847L28.6664 34.858L28.6205 35.3396V35.7294L28.6434 36.0275L28.7122 36.4632L28.8498 37.0136L29.0562 37.541L29.2396 37.8849L29.4919 38.2977L29.6753 38.527L29.8817 38.7793L30.0652 38.9627L30.3633 39.2379L30.6843 39.4901L30.9595 39.6736L31.4869 39.9487L31.9455 40.1322L32.45 40.2698L33.0233 40.3615L33.5048 40.3844L33.8947 40.3615L33.7571 40.522L33.5966 40.7055L33.4131 40.8889L33.2526 41.0724L32.5188 41.8062L32.4041 41.8979L32.0143 42.2648L31.7621 42.4712L31.6015 42.6317L31.441 42.8152L31.3493 43.0215L31.3264 43.2738L31.3952 43.5031L31.5098 43.6865L31.6933 43.8471L31.8997 43.9388L32.1978 43.9617H42.0352L42.448 43.9388L42.6315 43.87L42.8149 43.7324L42.9525 43.549L43.0442 43.2967V43.1362L43.0213 43.0215L42.9525 42.861L42.8149 42.6776L42.4251 42.3107L42.1728 42.1043L41.8977 41.8291L41.7142 41.6686L41.2327 41.187L41.0721 41.0036L40.8199 40.7513L40.6594 40.5679L40.4759 40.3844H40.774L41.3244 40.3615L41.783 40.2927L42.2646 40.1781L42.8378 39.9717L43.2735 39.7424L43.6863 39.4901L44.0761 39.192L44.3742 38.8939L44.5806 38.6646L44.7641 38.4353L44.9934 38.1143L45.2456 37.6786L45.452 37.1741L45.5667 36.8072L45.6813 36.3027L45.7272 35.867V35.1791L45.6584 34.6287L45.5667 34.2389L45.4061 33.7573L45.1997 33.3216L44.9934 32.9547L44.787 32.6566L44.5347 32.3356L44.2137 32.0146L43.8927 31.7394L43.5258 31.4642L43.1359 31.2349L42.6315 31.0056L42.1499 30.8451L41.9435 30.8221L42.0123 30.3864L42.0352 29.9278L42.0123 29.3545L41.9206 28.8042L41.7601 28.2309L41.5308 27.7035L41.3244 27.3366L41.0492 26.9238L40.8199 26.6486L40.6594 26.4652L40.4989 26.3276L40.2695 26.1212L40.0402 25.9378L39.6733 25.6855L39.2376 25.4562L38.6644 25.2269L38.1369 25.0893L37.6325 25.0205ZM46.438 46.5988H46.117L45.9335 46.6676L45.773 46.8052L45.6354 46.9886L45.4291 47.4702L45.1539 48.1811L44.1678 50.6806L44.0073 51.1621V51.3226L44.0761 51.4831L44.2366 51.6437L44.4201 51.7125H44.6035L44.7411 51.6666L44.8329 51.5749L44.9246 51.4373L45.131 50.9557L45.2915 50.4742H47.2865L47.5387 51.1162L47.7222 51.4831L47.8598 51.6437L48.0203 51.7125H48.2037L48.3413 51.6666L48.4789 51.5519L48.6165 51.3456V51.0933L48.4789 50.7035L47.791 49.0066L47.5158 48.3416L47.1718 47.4931L46.9884 47.0574L46.8279 46.8052L46.6903 46.6905L46.438 46.5988ZM28.0931 17.2469H27.9096L27.795 17.2698L27.6344 17.3386L27.451 17.4991L27.2905 17.7972L26.8089 19.0126L26.5108 19.7693L26.1439 20.7095L25.8917 21.3286L25.7541 21.7414L25.7312 21.9478L25.7999 22.1312L25.9605 22.2917L26.2127 22.3834L26.442 22.3376L26.5567 22.2459L26.7172 21.9936L26.8319 21.6955L27.0382 21.1222H29.0103L29.0332 21.1681L29.2396 21.7414L29.4231 22.1312L29.5607 22.2917L29.7441 22.3834H29.9276L30.0652 22.3376L30.2027 22.2229L30.3403 22.0165V21.7872L30.2027 21.3515L29.8817 20.5719L29.4231 19.4482L29.0562 18.5539L28.8039 17.9119L28.6434 17.5908L28.4829 17.4074L28.2995 17.2927L28.0931 17.2469Z" fill="white"/>
<path d="M28.0013 18.3705L27.8867 18.6457L27.3822 20.0674L27.2905 20.2967V20.3426H28.7122L28.6664 20.1362L28.1848 18.8062L28.0243 18.3705H28.0013Z" fill="white"/>
<path d="M46.2775 47.6995L45.9794 48.5021L45.7501 49.1671L45.5667 49.6716H47.0113L46.8279 49.1212L46.5756 48.4333L46.3004 47.6995H46.2775Z" fill="white"/>
<path d="M51.4829 20.2279L51.46 54.0744L51.4141 54.3037L51.2765 54.533L51.116 54.6706L50.9555 54.7394L50.8408 54.7623L34.0552 54.7852H33.6654L33.0691 54.8082L33.1609 54.854L36.3712 55.519L39.9485 56.2758L41.5078 56.5968L47.1948 57.7892L49.5796 58.2937L50.8179 58.546L50.8638 58.3854L51.1848 56.872L51.5058 55.3127L52.0562 52.6985L52.3772 51.185L52.6983 49.6257L52.9046 48.6626L53.455 46.0255L53.776 44.5121L55.6564 35.523L55.9545 34.1242L56.2755 32.5649L56.6883 30.6157L56.9635 29.3087L57.2616 27.864L57.9724 24.4931L58.2705 23.0485L58.5457 21.7414L58.4999 21.6726L56.9405 21.3515L53.5467 20.6407L51.8039 20.2738L51.5746 20.2279H51.4829Z" fill="white"/>
<path d="M22.773 20.2279L17.0632 21.4203L15.8478 21.6726L15.8019 21.6955L15.8478 21.9936L17.109 28.0245L17.5218 29.9737L17.8199 31.4183L19.1958 37.9767L19.8149 40.9119L20.113 42.3565L21.0073 46.5988L21.3054 48.0435L22.1998 52.2857L22.4979 53.7304L23.0482 56.3446L23.461 58.3166L23.5068 58.546L23.6903 58.523L25.0891 58.2249L26.5337 57.9268L28.8039 57.4453L30.2486 57.1472L32.5188 56.6656L33.3902 56.4822L33.459 56.4363L32.794 56.2758L31.8079 56.0694L29.9734 55.6796L28.5288 55.3815L26.9236 55.0375L25.777 54.8082L25.5477 54.7852L23.461 54.7623L23.2317 54.6706L23.0482 54.5101L22.9335 54.3266L22.8877 54.1432L22.8648 20.2279H22.773Z" fill="white"/>
<path fill-rule="evenodd" clip-rule="evenodd" d="M9.46041 61.7112C9.90371 62.2043 10.3626 62.6885 10.837 63.1629C11.3115 63.6374 11.7956 64.0963 12.2888 64.5396C26.8153 77.5968 49.188 77.1379 63.1629 63.1629C77.1379 49.188 77.5968 26.8153 64.5396 12.2888C64.0963 11.7956 63.6374 11.3115 63.1629 10.837C62.6885 10.3626 62.2044 9.90371 61.7112 9.46041C47.1847 -3.59677 24.812 -3.13789 10.837 10.837C-3.13789 24.812 -3.59677 47.1847 9.46041 61.7112ZM15.1218 61.7066C28.0817 73.2043 47.9221 72.747 60.3345 60.3345C72.747 47.9221 73.2043 28.0817 61.7066 15.1218L56.9817 19.8467L21.3477 55.4807L15.1218 61.7066ZM58.8782 12.2934L52.3018 18.8698L20.3663 50.8053L12.2934 58.8782C0.795671 45.9183 1.25303 26.0779 13.6655 13.6655C26.0779 1.25303 45.9183 0.795671 58.8782 12.2934Z" fill="#FF4800"/>
<path d="M23.461 14.1741H50.8638L51.0472 14.2429L51.2536 14.3805L51.4141 14.6098L51.46 14.7474V18.7145L51.6664 18.7374L52.3018 18.8698L58.8782 12.2934C45.9183 0.795671 26.0779 1.25303 13.6655 13.6655C1.25303 26.0779 0.795671 45.9183 12.2934 58.8782L20.3663 50.8053L20.2277 50.1531L19.9525 48.8231L19.4709 46.53L19.0352 44.4662L18.7601 43.1362L17.2925 36.1422L16.9714 34.6287L16.6733 33.184L16.2835 31.3266L15.779 28.9418L15.4809 27.4971L14.1738 21.2827V20.9617L14.2656 20.7324L14.4261 20.5489L14.6325 20.4343L14.9764 20.3426L16.6045 19.9986L21.1908 19.0355L22.7501 18.7145L22.8418 18.6915L22.8648 14.7932L22.9565 14.541L23.1629 14.3117L23.3692 14.197L23.461 14.1741Z" fill="white"/>
<path d="M56.9817 19.8467L57.8119 20.0215L59.5318 20.3884L59.7611 20.4802L59.8987 20.5719L60.0592 20.7553L60.1509 20.9617L60.1738 21.191L59.9445 22.3147L59.5776 24.0574L59.2795 25.5021L58.3852 29.7444L58.133 30.9597L57.1928 35.4313L56.8947 36.876L56.0004 41.1182L55.7022 42.5629L54.5328 48.1123L54.2346 49.5569L53.3403 53.7992L53.0422 55.2439L52.125 59.6008L51.9645 59.9218L51.781 60.0823L51.5517 60.1741H51.2536L48.4101 59.5779L47.0113 59.2798L45.5667 58.9817L37.3802 57.2618L37.0821 57.2389L23.0941 60.1511L22.8877 60.1741L22.6354 60.1053L22.4291 59.9677L22.2685 59.7384L22.1998 59.532L21.8329 57.8122L21.5347 56.3675L21.3477 55.4807L15.1218 61.7066C28.0817 73.2043 47.9221 72.747 60.3345 60.3345C72.747 47.9221 73.2043 28.0817 61.7066 15.1218L56.9817 19.8467Z" fill="white"/>
</svg>
